<?xml version="1.0" encoding="utf-8"?>
<!-- Generator: Adobe Illustrator 19.0.0, SVG Export Plug-In . SVG Version: 6.00 Build 0)  -->
<svg version="1.1" id="Capa_1" xmlns="http://www.w3.org/2000/svg" xmlns:xlink="http://www.w3.org/1999/xlink" x="0px" y="0px"
	 viewBox="0 0 885.2 114.6" style="enable-background:new 0 0 885.2 114.6;" xml:space="preserve">
<style type="text/css">
	.st0{fill:#FADA5A;}
</style>
<g id="XMLID_1_">
	<g id="XMLID_20_">
		<path id="XMLID_21_" class="st0" d="M816.9,75.3c-0.3,0.1-0.7,0.3-1,0.4c-1.6,0.6-3.2,1.2-4.9,1.8c-1.2,0.4-2.3-0.5-2-1.7
			c0.1-0.7,0.6-1,1.2-1.2c1.9-0.7,3.7-1.4,5.6-2.1c0.8-0.3,0.8-0.3,0.3-1.1c-1.7-2.6-4.9-3.9-7.9-3.3c-4.1,0.8-6.5,4.4-6.2,8.2
			c0.4,4.1,3.6,7,7.7,7c1.9,0,3.5-0.6,4.9-1.8c1.8-1.5,2.7-3.5,2.8-5.8C817.4,75.2,817.3,75.1,816.9,75.3z"/>
		<path id="XMLID_22_" class="st0" d="M839.4,55.7c-0.1-0.2-0.2-0.3-0.4-0.3c-0.6-0.1-1.2-0.3-1.8-0.1c-0.8,0.2-1.6,0.1-2.2-0.6
			c-0.3-0.3-0.6-0.6-0.9-0.9c-1.8-2.1-3.6-4.1-5.4-6.2c-0.3-0.3-0.4-0.4-0.7,0c-1.5,3.1-3.1,6.1-4.7,9.2c-0.2,0.3-0.2,0.6,0.1,0.8
			c1.6,1.4,3.2,2.8,4.8,4.3c0.3,0.3,0.5,0.3,0.8-0.1c0.7-0.7,1.5-1.3,2.4-1.8c1.6-0.8,3.4-0.9,5.1-0.9c1.1,0,2.3,0,3.4,0
			c0.2,0,0.4,0.1,0.4-0.2c0-0.1,0-0.1,0-0.1C840.2,57.8,839.8,56.8,839.4,55.7z"/>
		<path id="XMLID_25_" class="st0" d="M847.8,67.9c-0.5,0.1-0.5,0.2-0.4,0.6c0.3,0.9,0.6,1.7,1,2.6c0.5,1.5,1.1,3,1.6,4.5
			c0.3,1-0.4,1.9-1.5,1.9c-0.8,0-1.2-0.6-1.4-1.3c-0.8-2.1-1.6-4.2-2.4-6.4c-0.3-0.8-0.3-0.8-1-0.3c-2.5,2-3.4,5.5-2.4,8.4
			c1.1,3.1,3.9,5.1,7.2,5.2c0.4,0,0.8,0,1.2-0.1c4.4-0.8,7.1-4.6,6.3-9C855.5,70.3,851.6,67.4,847.8,67.9z"/>
		<path id="XMLID_30_" class="st0" d="M827.9,0c-31.6,0-57.3,25.6-57.3,57.3c0,31.6,25.6,57.3,57.3,57.3s57.3-25.6,57.3-57.3
			C885.2,25.7,859.6,0,827.9,0z M830.6,28.3c2.9,0,5.1,2.3,5.1,5.2c0,2.9-2.3,5.2-5.1,5.2c-2.9,0-5.2-2.3-5.2-5.2
			C825.4,30.7,827.8,28.3,830.6,28.3z M851,86c-5.9,1.5-12.2-2.7-13-8.6c-0.6-4.6,1-8.2,4.8-10.8c0.2-0.1,0.5-0.2,0.4-0.5
			c-0.1-0.6-0.3-0.7-0.8-0.4c-2.1,1.4-3.7,3.2-4.9,5.4c-0.6,1.1-1.2,2.2-1.5,3.5c-0.2,0.7-0.6,0.9-1.3,0.9c-4.5,0-9,0-13.5,0
			c-0.6,0-0.8,0.2-0.8,0.8c-0.2,4.7-3.9,9-8.5,9.9c-5.8,1.1-11.2-2.5-12.6-8.3c-1.1-4.9,1.5-10,6.1-12c0.3-0.1,0.6-0.2,1-0.4
			c-1.2-0.2-2.2-0.5-3.2-0.7c-1.3-0.3-2.6-0.5-3.9-0.8c-0.5-0.1-0.8-0.3-1-0.7c-0.5-1-1.1-2-1.6-2.9c0-0.2,0-0.5,0-0.7
			c0.4-0.3,0.8-0.3,1.2-0.3c6.3,0,12.7,0,19,0c0.2,0,0.4,0,0.7,0c-0.1-0.3-0.3-0.4-0.5-0.5c-1.2-0.8-2.4-1.7-3.6-2.5
			c-1.6-1.1-2-2.7-1-4.3c2.3-3.7,4.5-7.4,6.9-11c2-3,5.6-3.7,8.8-1.7c1.2,0.7,2.2,1.7,3,2.8c2.5,3.3,4.9,6.6,7.3,9.9
			c0.1,0.2,0.3,0.3,0.5,0.3c0.5,0.1,1.1,0.2,1.6,0.2c0.6,0.1,1,0.2,1.1,0.9c0.1,0.6,0.4,1,1.2,1c0.9,0,1.6,0.4,2.4,0.9
			c0.6,0.4,0.9,1,0.9,1.8c0,0.7,0,1.3-0.1,1.9c-0.1,0.4,0,0.5,0.4,0.6c2.3,0.3,4.6,0.8,6.7,1.7c1.1,0.4,2.2,1,3.3,1.6
			c0.8,0.5,1,1.3,0.6,2c-0.4,0.7-1.2,1-2,0.6c-1.1-0.5-2.2-1.2-3.4-1.5c-1.8-0.5-3.7-0.5-5.5-0.1c-0.2,0.1-0.6,0.1-0.4,0.5
			c0.1,0.3,0.2,0.8,0.7,0.6c1.1-0.2,2.3-0.2,3.5-0.1c4.5,0.6,8.4,4.4,9.1,8.9C859.9,79.5,856.6,84.5,851,86z"/>
	</g>
	<g id="XMLID_31_">
		<path id="XMLID_34_" class="st0" d="M624.9,73.9c-1.7,0-3.4,0-5.2,0c-0.5,0-0.8,0.1-1.1,0.5c-0.2,0.3-0.6,0.5-0.9,0.7
			c-1.6,0.7-3.5,0-4.2-1.6c-0.7-1.7,0.1-3.5,1.9-4.2c0.3-0.1,0.6-0.2,0.8-0.6c0.7-1.7,1.4-3.4,2.1-5c0.2-0.4,0.1-0.6-0.3-0.6
			c-0.9-0.1-1.9-0.2-2.8-0.1c-4.4,0.6-7.9,4.4-8.1,8.8c-0.2,5.4,4,9.8,9.4,9.8c4.3,0,8.1-2.9,9.1-7
			C625.6,73.9,625.6,73.9,624.9,73.9z"/>
		<path id="XMLID_36_" class="st0" d="M647.5,66.4c1,0.6,2,1.2,2.9,1.8c0.4,0.2,0.7,0.4,1.2,0.7c-0.4-1.8-0.7-3.4-1-5
			c-0.1-0.4-0.4-0.2-0.5-0.1c-1,0.5-1.9,1.1-2.7,1.9C647.1,66,647.2,66.2,647.5,66.4z"/>
		<path id="XMLID_37_" class="st0" d="M621.4,64.8c-0.7,1.7-1.4,3.4-2.2,5.1c-0.2,0.5-0.1,0.6,0.4,0.6c0.9,0,1.8,0,2.7,0
			c0.9,0,1.8,0,2.6,0c0.5,0,0.7-0.1,0.5-0.6c-0.6-2.1-1.8-3.9-3.5-5.2C621.7,64.5,621.5,64.5,621.4,64.8z"/>
		<path id="XMLID_39_" class="st0" d="M649.4,60.5c0.4-0.2,0.5-0.3,0.4-0.8c-0.5-2.4-1-4.8-1.5-7.2c-0.2-0.7-0.2-0.7-0.9-0.5
			c-1.8,0.7-3.5,1.3-5.3,2c-1.8,0.6-3.5-0.4-3.7-2.3c-0.1-0.4-0.1-0.8-0.1-1.2c0-0.1,0-0.3-0.3-0.3c-0.1,0.1-0.2,0.2-0.4,0.3
			c-0.9,0.7-1.8,1.5-2.7,2.2c-0.7,0.6-0.7,0.5,0.1,0.9c2.1,0.9,4.2,1.6,6.2,2.6c1.8,0.9,2.5,3,1.6,4.8c-0.2,0.5-0.5,1-0.9,1.5
			c-0.2,0.3-0.2,0.5,0.2,0.7c0.5,0.3,1,0.5,1.4,0.9c0.3,0.2,0.6,0.2,0.8-0.1C645.9,62.4,647.5,61.2,649.4,60.5z"/>
		<path id="XMLID_43_" class="st0" d="M635.3,0C603.6,0,578,25.7,578,57.3c0,31.6,25.7,57.3,57.3,57.3c31.6,0,57.3-25.7,57.3-57.3
			C692.6,25.7,666.9,0,635.3,0z M647.9,29.7c3.5,0.2,5.6,3,5.5,5.9c-0.2,3.2-2.9,5.7-5.9,5.4c-3.3-0.1-5.6-2.9-5.5-5.8
			C642.2,31.8,645,29.5,647.9,29.7z M660.9,82.9c-4.7,2.9-10.3,2.7-14.7-0.7c-2.9-2.3-4.5-5.3-4.8-8.9c-0.2-1.9,0.1-3.8,0.8-5.6
			c0.2-0.4,0.1-0.6-0.3-0.8c-0.4-0.2-0.9-0.5-1.3-0.8c-0.4-0.3-0.7-0.3-0.9,0.2c-1.1,1.8-2.2,3.6-3.3,5.4c-1,1.5-2.6,2.2-4.2,1.9
			c-2.3-0.5-3.5-3-2.5-5.1c0.9-1.8,2-3.4,3-5.1c0.3-0.5,0.6-1.1,1-1.6c0.2-0.3,0.2-0.5-0.2-0.7c-2.3-0.9-4.6-1.9-6.9-2.8
			c-0.7-0.3-1.5-0.1-2.3-0.1c-0.2,0-0.3,0.2-0.4,0.4c-0.3,0.8-0.7,1.6-1,2.4c-0.2,0.4,0.1,0.5,0.3,0.7c2,1.3,3.5,3.1,4.6,5.3
			c2.1,4.2,1.3,10-1.8,13.5c-2.5,2.9-5.7,4.5-9.5,4.5c-4.6,0-8.2-2-10.8-5.8c-1.1-1.6-1.6-3.4-2-5.2c0-1.1,0-2.1,0-3.2
			c0.3-1.9,0.9-3.6,1.9-5.2c2.5-3.7,5.9-5.7,10.3-5.9c1,0,2.1,0,3.1,0.3c0.5,0.1,0.8,0,1-0.5c0-0.1,0.1-0.1,0.1-0.2
			c0.4-0.9,0.4-0.9-0.4-1.3c-0.8-0.4-1.2-1.1-1.1-2c0-0.9,0.5-1.5,1.3-1.8c0.3-0.1,0.6-0.2,0.6-0.7c-0.1-1.4,0.6-2.4,1.6-3.3
			c2.4-2,4.8-3.9,7.3-5.9c1.9-1.5,3.8-3.1,5.7-4.6c2.4-2,5.3-1.8,7.4,0.4c1.3,1.4,1.6,3.1,1,4.9c-0.3,0.9-0.1,1.7,0,2.5
			c0.1,0.5,0.4,0.2,0.6,0.2c1.9-0.7,3.9-1.5,5.8-2.2c1.6-0.6,3.1,0.1,3.6,1.6c0.5,1.3-0.2,2.8-1.5,3.3c-0.5,0.2-0.6,0.5-0.5,1
			c0.5,2.5,1.1,5.1,1.5,7.6c0.1,0.5,0.3,0.7,0.8,0.7c5.4-0.2,10.3,3.4,12.1,8.4C668,73.4,665.8,79.8,660.9,82.9z"/>
		<path id="XMLID_47_" class="st0" d="M654.5,62.8c-0.6,0-0.7,0.1-0.6,0.7c0.4,1.7,0.7,3.4,1,5.1c0.1,0.4,0.2,0.7,0.7,1
			c1,0.6,1.6,1.6,1.5,2.7c-0.1,1.7-1.3,2.9-2.9,3.1c-1.6,0.1-3-0.9-3.3-2.6c-0.1-0.4-0.3-0.6-0.6-0.8c-1.5-0.9-2.9-1.8-4.4-2.7
			c-0.6-0.4-0.6-0.4-0.8,0.3c-1.9,5.9,2.7,12,8.9,12c0.4,0,0.8,0,1.2-0.1c5.2-0.8,8.7-5.3,8.1-10.6C662.8,66.6,658.9,63,654.5,62.8z
			"/>
	</g>
	<g id="XMLID_395_">
		<path id="XMLID_441_" class="st0" d="M57.3,0C25.7,0,0,25.7,0,57.3c0,31.6,25.7,57.3,57.3,57.3c31.6,0,57.3-25.7,57.3-57.3
			C114.6,25.7,88.9,0,57.3,0z M46.9,28.3c2.7,0,5.9,2.5,5.6,5.9c0.4,2.7-2.4,5.7-5.7,5.7c-3-0.1-5.8-2.8-5.7-5.7
			C41.2,31,43.8,28.3,46.9,28.3z M45.8,61.5c-1.1,1.1-2.5,1.8-2.9,3.6c-0.1,0.5-1,1.1-1.6,1.3c-3,1.1-5.7,4.8-4.1,8.2
			c1.1,2.3,1.9,4.7,2.6,7.1c0.7,2.2,0.5,4.5-0.1,6.8c-0.1,0.5-0.4,1.1-1.1,0.9c-0.3-0.1-0.7-0.8-0.6-1.1c1.2-4.5-0.5-8.5-2.1-12.5
			c-0.5-1.2-0.7-2.5-0.8-3.8c-0.1-2.2,1-3.9,2.6-5.2c1-0.9,1.1-1.7,0.6-2.9c-1-2.6-2-5.3-3-7.9c-0.4-1.1-0.2-2,0.4-2.9
			c1.7-2.6,3.5-5.2,5.2-7.7c1.5-2.2,3.5-3.3,6.2-3.3c4.5,0,9-0.1,13.4,0c1.1,0,1.5-0.4,1.7-1.5c0.8-4.8,1.7-9.5,2.5-14.3
			c0.1-0.7,0.4-1.2,1.1-1c0.7,0.2,0.8,0.7,0.6,1.5c-0.9,5-1.8,10-2.6,15.1c-0.1,0.5,0.1,1.1,0.2,1.7c0.5,1.7-0.3,3-2,3.3
			c-0.5,0.1-1.1,0.3-1.5,0.7c-2.1,1.9-4.1,3.8-6.1,5.8c-1,0.9-0.9,1.7,0.1,3.5c1.8-0.4,3.7-0.8,5.4-1.3c2-0.6,3.6-0.4,5.3,0.9
			c2.2,1.7,4.5,3.2,6.7,4.8c1.5,1.1,1.9,2.7,0.9,4.1c-0.9,1.3-2.8,1.4-4.2,0.5c-2-1.4-4.1-2.8-6.2-4.1c-0.5-0.3-1.4-0.4-2-0.3
			c-3.2,0.7-6.3,1.5-9.4,2.3C48.3,64.2,47.3,63.8,45.8,61.5z M59.5,78.3c-0.9-1.9-1.7-3.9-2.3-6c-0.6-1.8-1.7-3-3.3-4
			c-1-0.7-2-1.5-3.2-2.4c0.5-0.3,0.9-0.5,1.2-0.6c1.5-0.4,3.1-0.9,4.6-1.2c0.5-0.1,1.2,0.1,1.7,0.3c1.9,1.1,3.2,2.6,3.8,4.8
			c0.7,2.4,1.7,4.8,2.5,7.1c0.4,1.2-0.4,2.5-1.7,3.1C61.7,79.9,60.1,79.5,59.5,78.3z M85.1,90.3c-7.7,0-15.3,0-23,0
			c-0.3,0-0.7-0.1-1-0.2c0.1-0.3,0.1-0.7,0.3-0.9c1.7-2.6,3.4-5.3,5.9-7.2c2-1.5,2.8-3.4,3.3-5.8c0.5-2.1,1.3-4.1,2-6.1
			c0.2-0.6,0.7-1.1,1.2-1.6c1.2-1.1,2.5-2.2,3.7-3.3c1-0.9,0.7-2.2,1-3.3c0.2-0.8,0.3-1.7,0.7-2.4c1.9-3.2,4-6.4,6-9.6
			c0.2-0.3,0.4-0.5,0.6-0.8c0.1,0,0.2,0,0.3,0.1c0,0.3,0.1,0.6,0.1,1c0,13,0,26.1,0,39.1C86.1,90.1,85.8,90.3,85.1,90.3z"/>
		<path id="XMLID_445_" class="st0" d="M42.3,51.6c-0.8,1.1-1.4,2-1.9,2.8c-0.2,0.3-0.4,0.8-0.2,1.1c0.7,2.1,1.5,4.1,2.4,6.4
			c0.8-0.7,1.4-1.1,1.9-1.7c0.3-0.3,0.6-0.9,0.5-1.3C44.1,56.6,43.2,54.3,42.3,51.6z"/>
		<path id="XMLID_446_" class="st0" d="M53.3,51.8c1.7-1.6,3.3-3.2,5-4.8c-0.1-0.1-0.1-0.2-0.2-0.2c-2.2,0-4.3,0-6.6,0
			c0.5,1.7,1,3.3,1.4,4.9C53.1,51.7,53.2,51.7,53.3,51.8z"/>
	</g>
	<path id="XMLID_455_" class="st0" d="M250,0c-31.6,0-57.3,25.7-57.3,57.3c0,31.6,25.7,57.3,57.3,57.3c31.6,0,57.3-25.7,57.3-57.3
		C307.3,25.7,281.6,0,250,0z M248.7,28.1c2.6,0,4.7,2,4.7,4.7c0,2.6-2.1,4.7-4.7,4.7c-2.6,0-4.8-2.1-4.8-4.7
		C243.9,30.2,246.1,28.1,248.7,28.1z M231,49.9c1-4.4,2.1-8.8,3.2-13.2c0.3-1.1,0.9-1.5,1.9-1.2c1.4,0.3,2.7,0.7,4.1,1.1
		c0.6,0.2,0.8,0.5,0.8,1.2c-0.1,0.3-0.1,0.6-0.2,0.8c-1,4.1-2,8.2-3,12.3c-0.4,1.5-0.9,1.8-2.4,1.5c-1.2-0.3-2.4-0.6-3.6-0.9
		C231,51.1,230.8,50.8,231,49.9z M254.2,86.5c-0.5,0-1.1,0-1.6,0c-1.4-0.5-2.2-1.5-2.6-2.9c-1.5-6.5-3.1-13.1-4.7-19.6
		c-0.2-0.7-0.4-1.5-0.6-2.2c-0.1,0.1-0.1,0.2-0.1,0.2c-1.8,7.2-3.6,14.4-5.4,21.6c-0.4,1.4-1,2.5-2.5,2.9c-0.6,0-1.1,0-1.7,0
		c-1.2-0.5-2.1-1.3-2.4-2.6c-0.2-0.7-0.1-1.5,0.1-2.2c1.7-6.9,3.4-13.9,5.1-20.8c1.6-6.5,3.2-12.9,4.7-19.4c0.4-1.9,2.6-3.7,4.8-3.6
		c2.5,0.1,4.1,1.4,4.8,3.8c0.6,2.2,1.2,4.3,1.7,6.5c0.1,0.6,0.4,0.9,1,1c1.8,0.4,3.5,0.8,5.3,1.2c0.3,0.1,0.5,0.1,0.8,0.2
		c1.2,0.5,1.8,1.5,1.5,2.7c-0.3,1.1-1.5,1.9-2.7,1.7c-2.8-0.6-5.5-1.3-8.3-2c-0.6-0.2-1-0.6-1.1-1.2c-0.2-0.6-0.3-1.2-0.4-1.8
		c-0.5,1.2-0.6,2.1-0.3,3.2c2.3,9.5,4.6,19,7,28.5C256.9,83.5,256.4,85.8,254.2,86.5z M269,44.1c-0.2,1-0.4,2-0.6,3
		c-1.5,8.1-3.1,16.3-4.6,24.4c-0.9,4.6-1.7,9.2-2.6,13.8c-0.2,0.8-0.5,1.1-1.3,1.1c-0.8,0-1.1-0.4-1.1-1.3c0.2-1,0.4-2.1,0.6-3.2
		c1.6-8.5,3.2-17.1,4.9-25.6c0.8-4.1,1.5-8.1,2.3-12.2c0-0.1,0.1-0.3,0.1-0.4c0.2-0.7,0.8-1.1,1.5-0.9
		C268.8,42.8,269.1,43.3,269,44.1z"/>
	<path id="XMLID_461_" class="st0" d="M442.6,0c-31.6,0-57.3,25.7-57.3,57.3c0,31.6,25.7,57.3,57.3,57.3s57.3-25.7,57.3-57.3
		C499.9,25.7,474.3,0,442.6,0z M436.4,29c2.5,0,4.6,2.2,4.6,4.6c0,2.4-2.1,4.6-4.6,4.6c-2.5,0-4.7-2.1-4.7-4.6
		C431.8,31.1,433.9,28.9,436.4,29z M415.7,49.2c0-0.3,0-0.6,0-0.8c1.9-3.3,3.8-6.5,5.6-9.8c0.4-0.8,0.9-1.6,1.4-2.3
		c0.5-0.8,1.1-1,1.9-0.5c0.7,0.4,1.4,0.8,2,1.2c1,0.6,1.1,1.1,0.5,2.1c-0.5,0.8-0.9,1.6-1.4,2.4c-1.7,2.9-3.4,5.9-5.1,8.8
		c-0.6,1.1-1.1,1.2-2.2,0.6c-0.7-0.4-1.4-0.8-2.1-1.2C416.1,49.6,415.9,49.4,415.7,49.2z M427.6,61.2c0,2.5,0,5.1,0,7.6
		c0,0.5-0.1,0.9-0.3,1.4c-1.7,3.6-3.3,7.2-5,10.8c-0.4,0.9-1.2,1.5-2.2,1.7c-0.4,0-0.8,0-1.2,0c-1.5-0.3-2.3-1.2-2.6-2.7
		c-0.1-0.8,0.1-1.5,0.5-2.2c1.4-3,2.9-6.1,4.4-9.1c0.2-0.4,0.3-0.8,0.3-1.2c-0.1-4.4-0.1-8.7-0.2-13.1c0-0.9,0.2-1.8,0.7-2.5
		c2-3.4,4-6.8,6-10.3c2.1-3.7,6-3.4,8.1-1.8c1,0.8,1.7,1.8,2.5,2.7c1.3,1.5,2.5,2.9,3.7,4.4c0.2,0.2,0.4,0.3,0.7,0.4
		c2.2,0.6,4.4,1.3,6.5,1.9c1.9,0.6,2.6,2.6,1.4,4.1c-0.5,0.6-1.1,0.9-1.9,0.7c-1.4-0.2-2.7-0.7-4.1-1.1c-1.5-0.4-3-0.8-4.4-1.2
		c-0.6-0.2-1.1-0.5-1.5-1c-0.6-0.7-1.1-1.4-1.7-2.1c-0.4-0.5-0.4-0.5-0.7,0c-1.3,2.3-2.6,4.6-3.9,6.8c-0.2,0.4-0.1,0.5,0.2,0.6
		c2,0.9,4.1,1.8,6.1,2.7c1.2,0.5,2,1.4,2.2,2.7c0.5,3.1,1,6.3,1.5,9.4c0.3,1.8-0.9,3.4-2.7,3.6c-1.7,0.2-3.1-0.9-3.4-2.7
		c-0.4-2.5-0.8-4.9-1.2-7.4c0-0.3-0.2-0.5-0.5-0.6c-2.3-1-4.6-2-6.9-3C427.6,60.5,427.6,60.5,427.6,61.2z M466.7,81.7
		c-11.6,0-23.1,0-34.7,0c-0.8,0-0.8,0-0.9-0.8c0-0.4,0-0.8,0-1.2c-0.1-0.5,0.1-0.7,0.6-0.8c2.9-0.7,5.8-1.4,8.7-2.1
		c1.6-0.4,3.2-0.8,4.8-1.2c0.5-0.1,0.7-0.3,0.7-0.8c0.1-1,0.3-1.9,0.4-2.9c0-0.4,0.2-0.6,0.6-0.7c2.6-0.8,5.3-1.6,7.9-2.4
		c0.5-0.2,0.8-0.4,1-0.9c0.1-0.4,0.2-0.8,0.3-1.1c0.5-1,0.4-2-0.1-3c-1.1-2.3-2.1-4.7-3.1-7c-0.1-0.3-0.2-0.6,0-0.9
		c1.3-3.6,2.6-7.2,3.8-10.9c0.1-0.3,0.3-0.5,0.6-0.6c1.3-0.5,2.6-1.1,3.9-1.6c0.3-0.1,0.5-0.3,0.6-0.7c0.8-3.9,1.7-7.7,2.5-11.6
		c0.1-0.4,0.2-0.6,0.7-0.4c1.3,0.3,2.5,0.6,3.8,0.9c0.5,0.1,0.6,0.3,0.6,0.8c0,7.9,0,15.8,0,23.7c0,0,0.1,0,0.1,0
		c0,7.8,0,15.6,0,23.4C469.5,80.5,468.2,81.7,466.7,81.7z"/>
</g>
</svg>
