<?xml version="1.0" encoding="utf-8"?>
<!-- Generator: Adobe Illustrator 19.0.0, SVG Export Plug-In . SVG Version: 6.00 Build 0)  -->
<svg version="1.1" id="Capa_1" xmlns="http://www.w3.org/2000/svg" xmlns:xlink="http://www.w3.org/1999/xlink" x="0px" y="0px"
	 viewBox="0 0 41.3 41.3" style="enable-background:new 0 0 41.3 41.3;" xml:space="preserve">
<style type="text/css">
	.st0{fill:#FFFFFF;}
</style>
<g id="XMLID_377_">
	<path id="XMLID_379_" class="st0" d="M20.6,0C9.2,0,0,9.2,0,20.6s9.2,20.6,20.6,20.6S41.3,32,41.3,20.6S32,0,20.6,0z M31.3,14.8
		c-0.8,0.8-1.2,1-1.2,1l0,0c-0.2,7-4.9,14.1-13.2,14.5c-3.1,0.2-6-1.1-8.2-2.9c0.8,0.2,1.6,0.4,2.5,0.4c1.7,0,3.3-0.6,4.6-1.7
		c0,0-4.6-1.3-4.5-3.4l2.2-0.1c0,0-1.4-0.4-2.2-1.1c-1.3-1.2-2.1-2.9-1.7-3.8c0,0,0.2,0.2,0.9,0.4c0.6,0.2,1.3,0.2,1.3,0.2
		s-1.4-1-1.8-2.1c-0.6-1.7-0.3-3.9,0.3-4.5c0,0,0.2,1.4,4.2,3.4c2,1,4.2,1.7,6,1.8c-0.1-0.4-0.2-1.2-0.2-1.6c0-2.4,2.2-4.3,4.9-4.3
		c1.5,0,2.9,0.6,3.8,1.6l1.3-0.6l1.6-0.7l0,0v0l0,0c0,0,0.1,0.1,0,0.3c-0.2,0.6-1.4,1.7-1.9,2.1l0,0.1c0,0,0.4,0,0.9-0.1
		c0.5-0.1,1.8-0.7,1.8-0.7S32.1,14,31.3,14.8z"/>
	<path id="XMLID_378_" class="st0" d="M31.8,11.2L31.8,11.2C31.8,11.2,31.8,11.4,31.8,11.2z"/>
</g>
</svg>
