<?xml version="1.0" encoding="utf-8"?>
<!-- Generator: Adobe Illustrator 19.0.0, SVG Export Plug-In . SVG Version: 6.00 Build 0)  -->
<svg version="1.1" id="Capa_1" xmlns="http://www.w3.org/2000/svg" xmlns:xlink="http://www.w3.org/1999/xlink" x="0px" y="0px"
	 viewBox="0 0 41.3 41.3" style="enable-background:new 0 0 41.3 41.3;" xml:space="preserve">
<style type="text/css">
	.st0{fill:#FFFFFF;}
</style>
<g id="XMLID_368_">
	<path id="XMLID_373_" class="st0" d="M25.5,10.2h-9.8c-3.4,0-6.1,2.7-6.1,6.1v8.6c0,3.4,2.7,6.1,6.1,6.1h9.8c3.4,0,6.1-2.7,6.1-6.1
		v-8.6C31.6,13,28.9,10.2,25.5,10.2z M20.6,27.6c-3.9,0-7-3.1-7-7c0-3.9,3.1-7,7-7c3.9,0,7,3.1,7,7C27.6,24.5,24.5,27.6,20.6,27.6z
		 M27.5,15.3c-0.8,0-1.5-0.6-1.5-1.4c0-0.8,0.6-1.4,1.5-1.4c0.8,0,1.4,0.6,1.4,1.4C29,14.7,28.3,15.3,27.5,15.3z"/>
	<path id="XMLID_370_" class="st0" d="M20.6,0C9.2,0,0,9.2,0,20.6s9.2,20.6,20.6,20.6c11.4,0,20.6-9.2,20.6-20.6S32,0,20.6,0z
		 M33.4,24.9c0,4.3-3.5,7.8-7.8,7.8h-9.8c-4.3,0-7.8-3.5-7.8-7.8v-8.6c0-4.3,3.5-7.8,7.8-7.8h9.8c4.3,0,7.8,3.5,7.8,7.8V24.9z"/>
	<path id="XMLID_13_" class="st0" d="M20.6,15.4c-2.9,0-5.2,2.4-5.2,5.2c0,2.9,2.4,5.2,5.2,5.2c2.9,0,5.2-2.4,5.2-5.2
		C25.9,17.7,23.5,15.4,20.6,15.4z"/>
</g>
</svg>
