<?xml version="1.0" encoding="utf-8"?>
<!-- Generator: Adobe Illustrator 19.0.0, SVG Export Plug-In . SVG Version: 6.00 Build 0)  -->
<svg version="1.1" id="Capa_1" xmlns="http://www.w3.org/2000/svg" xmlns:xlink="http://www.w3.org/1999/xlink" x="0px" y="0px"
	 viewBox="0 0 100 100" style="enable-background:new 0 0 100 100;" xml:space="preserve">
<style type="text/css">
	.st0{fill:#F8D85A;}
</style>
<g id="XMLID_6_">
	<path id="XMLID_2_" class="st0" d="M83.5,46c0-1.9-0.9-3.4-3.9-4.1c-0.2,2.8-0.6,5.7-1.3,8.3C82.3,49.7,83.4,48.2,83.5,46z"/>
	<path id="XMLID_75_" class="st0" d="M24.2,44.6c2.3,0,4.5-0.6,6.5-1.8c2-1.2,3.7-2.8,4.8-4.8c1.4-2.5,2-5.3,1.7-8
		c-0.5-3.9-2.7-7.8-6.5-9.9c-0.8-0.5-1.7-0.9-2.7-1.2c1.2,2.3,1.8,4.7,1.8,7.3c0,2.6-0.7,5.1-2,7.3c-1.3,2.3-3.1,4.1-5.3,5.4
		c-2.2,1.3-4.7,2-7.3,2.1c0.6,0.6,1.4,1.2,2.3,1.7C19.7,44,21.9,44.6,24.2,44.6z"/>
	<path id="XMLID_95_" class="st0" d="M50,100c27.6,0,50-22.4,50-50S77.6,0,50,0S0,22.4,0,50S22.4,100,50,100z M46.1,83.8
		c-13.8,0-25-6.2-25-13.8c0-7.6,11.2-13.8,25-13.8c1.3,0,2.7,0.1,4,0.2c3.3,0.3,6.5,1,9.4,2c2.4,0.8,4.5,1.9,6.3,3.1
		c0.2,0.1,0.3,0.2,0.5,0.4c3.1,2.4,4.8,5.2,4.8,8.1C71,77.6,59.8,83.8,46.1,83.8z M80.7,21.3c-0.2-1.3,1.9-1.3,2,0
		c0.4,3-1.2,4.9-4,5.7c-2.6,0.8-6.7,0.8-7.6,3.9c-0.4,1.3-2.4,0.7-2-0.5c0.8-2.8,3.3-4,6-4.6C77.8,25.1,81.1,24.9,80.7,21.3z
		 M63.3,30.1c0.4-3.2,2.8-4.9,5.7-5.9c2.4-0.8,7.2-1.2,5.9-4.8c-0.4-1.2,1.5-1.8,2-0.5c2.9,8.1-10.9,5-11.6,11.2
		C65.2,31.4,63.1,31.4,63.3,30.1z M79.8,34.7c0,1.2,0,2.5,0,3.8c5.6,0.9,8.2,3.9,8.2,7.4c0,4.1-3.5,7.5-10.9,7.7
		c-1,2.1-2.4,4-4.3,5.4c4.3,0.3,7.1,0.8,7.1,1.4c0,0.7-4.3,1.4-10.4,1.6c-0.3-0.3-0.6-0.6-0.9-0.9c-1-0.9-2.2-1.7-3.6-2.5
		c-4.3-2.4-10-4-16.4-4.3c-3.2-5.9-3.2-13.9-3.2-19.7H79.8z M12.3,40.7C12,40.3,12,40,12.3,39.6c0.2-0.4,0.5-0.5,0.9-0.5
		c0.4,0.1,0.9,0.1,1.7,0.1c2.3,0,4.5-0.6,6.6-1.7c2-1.2,3.6-2.8,4.8-4.8c1.3-2.3,1.9-4.8,1.7-7.4c-0.2-2.7-1.1-5-2.7-7.1
		c-0.3-0.3-0.3-0.7-0.1-1.1c0.2-0.4,0.5-0.5,0.9-0.5c2,0.3,3.8,0.9,5.6,1.9c1.8,1,3.2,2.3,4.5,4c1.2,1.6,2.1,3.4,2.6,5.2
		c0.5,1.8,0.6,3.8,0.4,5.8c-0.2,2-0.9,3.9-1.9,5.7c-1.3,2.3-3.2,4.2-5.6,5.6c-2.3,1.4-4.8,2.1-7.5,2.1c-2.6,0-5.1-0.7-7.5-2.1
		C15.1,43.6,13.6,42.4,12.3,40.7z"/>
	<path id="XMLID_104_" class="st0" d="M65.8,62.5c-0.2-0.1-0.3-0.2-0.5-0.4c-1.7-1.2-3.8-2.2-6.1-3c-2.8-1-5.9-1.6-9.2-1.9
		C48.7,57,47.4,57,46.1,57C32.7,57,21.9,62.8,21.9,70c0,7.2,10.9,13.1,24.2,13.1c13.4,0,24.2-5.9,24.2-13.1
		C70.3,67.3,68.7,64.7,65.8,62.5z M46.1,73.5c-6.6,0-11.9-3.3-11.9-7.4c0-0.9,0.8-1.7,1.7-1.7c0.9,0,1.7,0.8,1.7,1.7
		c0,0.6,0.3,1.1,0.9,1.7c0.8-1.7,3.9-2.9,7.5-2.9c3.7,0,6.9,1.3,7.6,3.1c0.6-0.6,1-1.2,1-1.8c0-0.9,0.8-1.7,1.7-1.7
		c0.9,0,1.7,0.8,1.7,1.7C57.9,70.2,52.7,73.5,46.1,73.5z"/>
	<path id="XMLID_105_" class="st0" d="M56.5,55.4c0,0-4.1-10.5-1.7-18.4h-5.4C49.4,36.9,47.6,48.6,56.5,55.4z"/>
</g>
</svg>
