<?xml version="1.0" encoding="utf-8"?>
<!-- Generator: Adobe Illustrator 19.0.0, SVG Export Plug-In . SVG Version: 6.00 Build 0)  -->
<svg version="1.1" id="Capa_1" xmlns="http://www.w3.org/2000/svg" xmlns:xlink="http://www.w3.org/1999/xlink" x="0px" y="0px"
	 viewBox="0 0 100 100" style="enable-background:new 0 0 100 100;" xml:space="preserve">
<style type="text/css">
	.st0{fill:#F8D85A;}
</style>
<g id="XMLID_10_">
	<path id="XMLID_90_" class="st0" d="M50,0C22.4,0,0,22.4,0,50c0,17,8.5,32.1,21.5,41.1V34c0-10.9,8.8-19.7,19.7-19.7
		c9.8,0,18,7.2,19.4,16.6c8.5,1.3,15,7.1,15.4,14.3c0,0.2-0.1,0.4-0.2,0.5c-0.1,0.1-0.3,0.2-0.5,0.2H39.1c-0.2,0-0.4-0.1-0.5-0.2
		c-0.1-0.1-0.2-0.3-0.2-0.5c0.4-7,6.5-12.7,14.7-14.2c-1.4-5.4-6.2-9.4-11.9-9.4c-6.8,0-12.4,5.5-12.4,12.4v61.3
		c6.4,3,13.6,4.7,21.1,4.7c27.6,0,50-22.4,50-50C100,22.4,77.6,0,50,0z M46.4,69.8c-2.2,0-3.9-1.8-3.9-3.9c0-1.4,1.5-3.1,2.6-4.7
		c0.6-0.9,2-0.9,2.6,0c1.2,1.7,2.6,3.3,2.6,4.7C50.4,68,48.6,69.8,46.4,69.8z M57.2,78.9c-2.2,0-3.9-1.8-3.9-3.9
		c0-1.4,1.5-3.1,2.6-4.7c0.6-0.9,2-0.9,2.6,0c1.2,1.7,2.6,3.3,2.6,4.7C61.2,77.2,59.4,78.9,57.2,78.9z M68.1,69.8
		c-2.2,0-3.9-1.8-3.9-3.9c0-1.4,1.5-3.1,2.6-4.7c0.6-0.9,2-0.9,2.6,0c1.2,1.7,2.6,3.3,2.6,4.7C72,68,70.2,69.8,68.1,69.8z M76,54.3
		H38.5c-1.4,0-2.4-1.1-2.4-2.4c0-1.4,1.1-2.4,2.4-2.4H76c1.4,0,2.4,1.1,2.4,2.4C78.5,53.2,77.4,54.3,76,54.3z"/>
</g>
</svg>
