<?xml version="1.0" encoding="utf-8"?>
<!-- Generator: Adobe Illustrator 19.0.0, SVG Export Plug-In . SVG Version: 6.00 Build 0)  -->
<svg version="1.1" id="Capa_1" xmlns="http://www.w3.org/2000/svg" xmlns:xlink="http://www.w3.org/1999/xlink" x="0px" y="0px"
	 viewBox="0 0 100 100" style="enable-background:new 0 0 100 100;" xml:space="preserve">
<style type="text/css">
	.st0{fill:#F8D85A;}
</style>
<g id="XMLID_8_">
	<path id="XMLID_12_" class="st0" d="M50,1.1C23,1.1,1.1,23,1.1,50S23,98.9,50,98.9S98.9,77,98.9,50S77,1.1,50,1.1z M35.6,45.7
		c-1,0.6-1.6,1.7-1.4,2.9c0.9,7.9,1.5,20.7,1.5,22.1c0,2-1.2,3.7-2.8,3.7c-1.5,0-2.8-1.6-2.8-3.7c0-1.4,0.6-14.2,1.5-22.1
		c0.1-1.2-0.4-2.3-1.4-2.9c-1.5-0.9-2.6-2.6-2.6-4.6l0.8-12.5c0-0.5,0.4-0.8,0.9-0.8c0.5,0,0.9,0.4,0.9,0.9l-0.5,10c0,0.6,0.5,1,1,1
		c0.6,0,1-0.5,1-1l0.2-10c0-0.5,0.4-1,1-1c0.5,0,1,0.4,1,1l0.2,10c0,0.6,0.5,1,1,1c0.6,0,1-0.5,1-1l-0.5-10c0-0.5,0.4-0.9,0.9-0.9
		c0.5,0,0.9,0.4,0.9,0.8l0.8,12.5C38.2,43.1,37.1,44.8,35.6,45.7z M56.9,65.5c-3.9,3.9-9.1,5.9-14.2,5.9l0-4.8
		c3.9,0,7.8-1.5,10.8-4.5c5.9-5.9,5.9-15.6,0-21.5c-3-3-6.9-4.5-10.8-4.5v-4.8c5.1,0,10.3,2,14.2,5.9C64.7,45,64.7,57.7,56.9,65.5z
		 M42.7,40.2c2.9,0,5.7,1.1,7.9,3.3c4.3,4.3,4.3,11.4,0,15.8c-2.2,2.2-5,3.3-7.9,3.3L42.7,40.2z M69.7,74.4c-1.5,0-2.8-1.6-2.8-3.7
		c0-1.3,0.5-12.3,1.3-20.2h-0.8c-1,0-1.9-0.8-1.9-1.9v-8.9c0-5,1.6-9.9,4.7-13.9c0.1-0.2,0.4-0.3,0.6-0.2c0.2,0.1,0.4,0.3,0.4,0.5
		v24.4c0.8,7.9,1.3,18.9,1.3,20.2C72.5,72.8,71.3,74.4,69.7,74.4z"/>
</g>
</svg>
