<?xml version="1.0" encoding="utf-8"?>
<!-- Generator: Adobe Illustrator 19.0.0, SVG Export Plug-In . SVG Version: 6.00 Build 0)  -->
<svg version="1.1" id="Capa_1" xmlns="http://www.w3.org/2000/svg" xmlns:xlink="http://www.w3.org/1999/xlink" x="0px" y="0px"
	 viewBox="0 0 100 100" style="enable-background:new 0 0 100 100;" xml:space="preserve">
<style type="text/css">
	.st0{fill:#F8D85A;}
</style>
<g id="XMLID_1_">
	<path id="XMLID_148_" class="st0" d="M50,1.1C23,1.1,1.1,23,1.1,50S23,98.9,50,98.9C77,98.9,98.9,77,98.9,50S77,1.1,50,1.1z
		 M74,76.7c0,2.9-2.4,5.3-5.3,5.3H31.3c-2.9,0-5.3-2.4-5.3-5.3V23.3c0-2.9,2.4-5.3,5.3-5.3h37.4c2.9,0,5.3,2.4,5.3,5.3V76.7z"/>
	<path id="XMLID_151_" class="st0" d="M68.7,20.7v14.7c0,0.5-0.2,0.9-0.6,1.1c-0.2,0.1-0.5,0.2-0.7,0.2c-0.2,0-0.4,0-0.6-0.1
		L62,34.1l-4.7,2.4c-0.4,0.2-0.9,0.2-1.3-0.1c-0.4-0.2-0.6-0.7-0.6-1.1V20.7h-24c-1.5,0-2.7,1.2-2.7,2.7v53.4c0,1.5,1.2,2.7,2.7,2.7
		h37.4c1.5,0,2.7-1.2,2.7-2.7V23.3C71.3,21.8,70.1,20.7,68.7,20.7z M34,32.7c0-0.7,0.6-1.3,1.3-1.3h13.3c0.7,0,1.3,0.6,1.3,1.3
		c0,0.7-0.6,1.3-1.3,1.3H35.3C34.6,34,34,33.4,34,32.7z M62,68.7H38c-0.7,0-1.3-0.6-1.3-1.3c0-0.7,0.6-1.3,1.3-1.3h24
		c0.7,0,1.3,0.6,1.3,1.3C63.3,68.1,62.7,68.7,62,68.7z M62,58H38c-0.7,0-1.3-0.6-1.3-1.3c0-0.7,0.6-1.3,1.3-1.3h24
		c0.7,0,1.3,0.6,1.3,1.3C63.3,57.4,62.7,58,62,58z M62,47.3H38c-0.7,0-1.3-0.6-1.3-1.3c0-0.7,0.6-1.3,1.3-1.3h24
		c0.7,0,1.3,0.6,1.3,1.3C63.3,46.7,62.7,47.3,62,47.3z"/>
</g>
</svg>
