<?xml version="1.0" encoding="utf-8"?>
<!-- Generator: Adobe Illustrator 19.0.0, SVG Export Plug-In . SVG Version: 6.00 Build 0)  -->
<svg version="1.1" id="Capa_1" xmlns="http://www.w3.org/2000/svg" xmlns:xlink="http://www.w3.org/1999/xlink" x="0px" y="0px"
	 viewBox="0 0 100 100" style="enable-background:new 0 0 100 100;" xml:space="preserve">
<style type="text/css">
	.st0{fill:#F8D85A;}
</style>
<g id="XMLID_4_">
	<path id="XMLID_106_" class="st0" d="M54.1,49.7c-0.6,0-1.2,0.1-1.8,0.1c-0.9,0.1-1.7-0.3-2-1.1c0-0.1-0.1-0.1-0.1-0.2
		c-1.5-4.9-6.2-8.3-11.5-8.3c-6.6,0-12,5.2-12,11.7c0,0.5,0,1.1,0.1,1.7c0.1,0.6-0.1,1.1-0.5,1.5c-0.4,0.4-1,0.6-1.5,0.5
		c-0.4,0-0.6-0.1-0.9-0.1c-4.2,0-7.6,3.3-7.6,7.3c0,4.1,3.4,7.3,7.6,7.3h30.1c5.8,0,10.6-4.6,10.6-10.3
		C64.7,54.4,59.9,49.7,54.1,49.7z"/>
	<path id="XMLID_110_" class="st0" d="M50,0C22.4,0,0,22.4,0,50s22.4,50,50,50s50-22.4,50-50S77.6,0,50,0z M87.1,57.2
		c0.3,0.6,0.2,1.3-0.2,1.8c-2.2,2.9-5.1,5.1-8.4,6.5c-2.5,1-5.2,1.6-7.8,1.6c-1.3,0-2.7-0.1-4-0.4C64.2,71,59.5,74,54.1,74H24
		c-6.2,0-11.2-4.9-11.2-11c0-5.8,4.6-10.5,10.4-11c0,0,0-0.1,0-0.1c0-8.5,7-15.3,15.6-15.3c4.6,0,8.9,2,11.8,5.3
		c1.4-6.4,5.9-11.8,12.2-14.4c3.3-1.4,7-1.9,10.5-1.4c0.6,0.1,1.2,0.5,1.4,1.1c0.3,0.6,0.2,1.3-0.2,1.8c-3.7,4.8-4.5,11.2-2.2,16.7
		c2.3,5.5,7.4,9.5,13.4,10.3C86.3,56.2,86.9,56.6,87.1,57.2z"/>
	<path id="XMLID_111_" class="st0" d="M68.9,47.2c-2.4-5.7-2-12.2,0.9-17.5c-1.9,0.1-3.8,0.5-5.6,1.3c-6.2,2.6-10.3,8.5-10.4,15.2
		c0.1,0,0.2,0,0.3,0c7.9,0,14.3,6.3,14.3,14c0,1.1-0.1,2.1-0.4,3.1c3.1,0.5,6.2,0.1,9.1-1.1c1.8-0.7,3.5-1.8,4.9-3.1
		C76.1,57.2,71.3,52.9,68.9,47.2z"/>
</g>
</svg>
