<?xml version="1.0" encoding="utf-8"?>
<!-- Generator: Adobe Illustrator 19.0.0, SVG Export Plug-In . SVG Version: 6.00 Build 0)  -->
<svg version="1.1" id="Capa_1" xmlns="http://www.w3.org/2000/svg" xmlns:xlink="http://www.w3.org/1999/xlink" x="0px" y="0px"
	 viewBox="0 0 100 100" style="enable-background:new 0 0 100 100;" xml:space="preserve">
<style type="text/css">
	.st0{fill:#F8D85A;}
</style>
<g id="XMLID_7_">
	<path id="XMLID_130_" class="st0" d="M51,33.6c-8.4,0-15.2,6.8-15.2,15.2c0,8.4,6.8,15.2,15.2,15.2c8.4,0,15.2-6.8,15.2-15.2
		C66.2,40.5,59.4,33.6,51,33.6z M51,60c-6.1,0-11.1-5-11.1-11.1s5-11.1,11.1-11.1s11.1,5,11.1,11.1S57.1,60,51,60z"/>
	<path id="XMLID_133_" class="st0" d="M50,1.1C23,1.1,1.1,23,1.1,50S23,98.9,50,98.9C77,98.9,98.9,77,98.9,50S77,1.1,50,1.1z
		 M27.8,45.7c-1,0.6-1.6,1.7-1.4,2.9c0.9,7.9,1.5,20.7,1.5,22.1c0,2-1.2,3.7-2.8,3.7c-1.5,0-2.8-1.6-2.8-3.7
		c0-1.4,0.6-14.2,1.5-22.1c0.1-1.2-0.4-2.3-1.4-2.9c-1.5-0.9-2.6-2.6-2.6-4.6l0.8-12.5c0-0.5,0.4-0.8,0.9-0.8c0.5,0,0.9,0.4,0.9,0.9
		l-0.5,10c0,0.6,0.5,1,1,1c0.6,0,1-0.5,1-1l0.2-10c0-0.5,0.4-1,1-1c0.5,0,1,0.4,1,1l0.2,10c0,0.6,0.5,1,1,1c0.6,0,1-0.5,1-1l-0.5-10
		c0-0.5,0.4-0.9,0.9-0.9c0.5,0,0.9,0.4,0.9,0.8l0.8,12.5C30.4,43.1,29.3,44.8,27.8,45.7z M51,68.9c-11.1,0-20.1-9-20.1-20.1
		c0-11.1,9-20.1,20.1-20.1c11.1,0,20.1,9,20.1,20.1C71,60,62.1,68.9,51,68.9z M77.5,74.4c-1.5,0-2.8-1.6-2.8-3.7
		c0-1.3,0.5-12.3,1.3-20.2h-0.8c-1,0-1.9-0.8-1.9-1.9v-8.9c0-5,1.6-9.9,4.7-13.9c0.1-0.2,0.4-0.3,0.6-0.2c0.2,0.1,0.4,0.3,0.4,0.5
		v24.4c0.8,7.9,1.3,18.9,1.3,20.2C80.3,72.7,79.1,74.4,77.5,74.4z"/>
</g>
</svg>
