<?xml version="1.0" encoding="utf-8"?>
<!-- Generator: Adobe Illustrator 19.0.0, SVG Export Plug-In . SVG Version: 6.00 Build 0)  -->
<svg version="1.1" id="Capa_1" xmlns="http://www.w3.org/2000/svg" xmlns:xlink="http://www.w3.org/1999/xlink" x="0px" y="0px"
	 viewBox="0 0 100 100" style="enable-background:new 0 0 100 100;" xml:space="preserve">
<style type="text/css">
	.st0{fill:#F8D85A;}
</style>
<g id="XMLID_16_">
	<path id="XMLID_114_" class="st0" d="M50,0C22.4,0,0,22.4,0,50s22.4,50,50,50c27.6,0,50-22.4,50-50S77.6,0,50,0z M80.3,59.6
		c0,1.7-0.6,3.2-1.6,4.4c0,0,0,0,0,0v10.2c0,3.8-3.1,6.8-6.8,6.8H20.7c-0.5,0-1-0.4-1-1s0.4-1,1-1h4.8v-1.7h-4.8c-0.5,0-1-0.4-1-1
		c0-0.5,0.4-1,1-1h4.8v-1.7c-3.3-0.5-5.8-3.3-5.8-6.7v-41c0-3.8,3.1-6.8,6.8-6.8h46.9c3.8,0,6.8,3.1,6.8,6.8V59.6z"/>
	<path id="XMLID_117_" class="st0" d="M73.5,21H26.5c-2.7,0-4.8,2.2-4.8,4.8v41c0,2.7,2.2,4.8,4.8,4.8h43.1c0.7,0,1.2-0.5,1.2-1.2
		c0-0.5,0.4-1,1-1c0.5,0,1,0.4,1,1c0,1.7-1.4,3.2-3.2,3.2H27.5V79h44.3c2.7,0,4.8-2.2,4.8-4.8v-8.6c-1,0.5-2.1,0.8-3.3,0.8H28.7
		c-0.7,0-1.2,0.5-1.2,1.2c0,0.5-0.4,1-1,1c-0.5,0-1-0.4-1-1c0-1.7,1.4-3.2,3.2-3.2h44.7c2.7,0,4.8-2.2,4.8-4.8V25.9
		C78.3,23.2,76.1,21,73.5,21z M29.9,52.1c-0.6,0-1.1-0.5-1.1-1.1c0-0.6,0.5-1.1,1.1-1.1c0.6,0,1.1,0.5,1.1,1.1
		C31,51.7,30.5,52.1,29.9,52.1z M33.2,55.5c-0.6,0-1.1-0.5-1.1-1.1c0-0.6,0.5-1.1,1.1-1.1c0.6,0,1.1,0.5,1.1,1.1
		C34.2,55.1,33.8,55.5,33.2,55.5z M72.2,33.3c-0.6,0-1.1-0.5-1.1-1.1c0-0.6,0.5-1.1,1.1-1.1c0.6,0,1.1,0.5,1.1,1.1
		C73.2,32.9,72.8,33.3,72.2,33.3z"/>
</g>
</svg>
