<svg xmlns="http://www.w3.org/2000/svg" xmlns:xlink="http://www.w3.org/1999/xlink" viewBox="0 0 1520.38 469.54"><defs><style>.cls-1{fill:url(#Degradado_sin_nombre_2);}.cls-2{fill:url(#Análogo_4);}.cls-3{fill:url(#Análogo_4-2);}.cls-4{fill:url(#Análogo_4-3);}.cls-5{fill:url(#Análogo_4-4);}.cls-6{fill:url(#Análogo_4-5);}.cls-7{fill:url(#Análogo_4-6);}.cls-8{fill:url(#Análogo_4-7);}.cls-9{fill:url(#Análogo_4-8);}.cls-10{fill:url(#Análogo_4-9);}.cls-11{fill:url(#Análogo_4-10);}.cls-12{fill:url(#Análogo_4-11);}.cls-13{fill:url(#Análogo_4-12);}.cls-14{fill:url(#Análogo_4-13);}.cls-15{fill:url(#Análogo_4-14);}.cls-16{fill:url(#Análogo_4-15);}.cls-17{fill:url(#Análogo_4-16);}.cls-18{fill:url(#Análogo_4-17);}.cls-19{fill:url(#Análogo_4-18);}.cls-20{fill:url(#Análogo_4-19);}.cls-21{fill:url(#Análogo_4-20);}.cls-22{fill:url(#Análogo_4-21);}.cls-23{fill:url(#Análogo_4-22);}.cls-24{fill:url(#Análogo_4-23);}.cls-25{fill:url(#Análogo_4-24);}.cls-26{fill:url(#Análogo_4-25);}.cls-27{fill:url(#Análogo_4-26);}.cls-28{fill:url(#Análogo_4-27);}.cls-29{fill:url(#Análogo_4-28);}.cls-30{fill:url(#Análogo_4-29);}.cls-31{fill:url(#Análogo_4-30);}.cls-32{fill:url(#Análogo_4-31);}.cls-33{fill:url(#Análogo_4-32);}.cls-34{fill:url(#Análogo_4-33);}.cls-35{fill:url(#Análogo_4-34);}.cls-36{fill:url(#Análogo_4-35);}.cls-37{fill:url(#Análogo_4-36);}.cls-38{fill:url(#Análogo_4-37);}.cls-39{fill:url(#Análogo_4-38);}.cls-40{fill:url(#Análogo_4-39);}.cls-41{fill:url(#Análogo_4-40);}.cls-42{fill:url(#Análogo_4-41);}.cls-43{fill:url(#Análogo_4-42);}.cls-44{fill:url(#Análogo_4-43);}.cls-45{fill:url(#Análogo_4-44);}.cls-46{fill:url(#Análogo_4-45);}.cls-47{fill:url(#Análogo_4-46);}.cls-48{fill:url(#Análogo_4-47);}.cls-49{fill:url(#Análogo_4-48);}.cls-50{fill:url(#Análogo_4-49);}.cls-51{fill:url(#Análogo_4-50);}.cls-52{fill:url(#Análogo_4-51);}.cls-53{fill:url(#Análogo_4-52);}.cls-54{fill:url(#Análogo_4-53);}.cls-55{fill:url(#Análogo_4-54);}.cls-56{fill:url(#Análogo_4-55);}.cls-57{fill:url(#Análogo_4-56);}.cls-58{fill:url(#Análogo_4-57);}.cls-59{fill:url(#Análogo_4-58);}.cls-60{fill:url(#Análogo_4-59);}.cls-61{fill:url(#Análogo_4-60);}.cls-62{fill:url(#Análogo_4-61);}.cls-63{fill:url(#Análogo_4-62);}.cls-64{fill:url(#Análogo_4-63);}.cls-65{fill:url(#Análogo_4-64);}.cls-66{fill:url(#Análogo_4-65);}.cls-67{fill:url(#Análogo_4-66);}.cls-68{fill:url(#Análogo_4-67);}.cls-69{fill:url(#Análogo_4-68);}.cls-70{fill:url(#Análogo_4-69);}.cls-71{fill:url(#Análogo_4-70);}.cls-72{fill:url(#Análogo_4-71);}.cls-73{fill:url(#Análogo_4-72);}.cls-74{fill:url(#Análogo_4-73);}.cls-75{fill:url(#Análogo_4-74);}.cls-76{fill:url(#Análogo_4-75);}.cls-77{fill:url(#Análogo_4-76);}.cls-78{fill:url(#Análogo_4-77);}.cls-79{fill:url(#Análogo_4-78);}.cls-80{fill:url(#Análogo_4-79);}.cls-81{fill:url(#Análogo_4-80);}.cls-82{fill:url(#Análogo_4-81);}.cls-83{fill:url(#Análogo_4-82);}.cls-84{fill:url(#Análogo_4-83);}.cls-85{fill:url(#Análogo_4-84);}.cls-86{fill:url(#Análogo_4-85);}.cls-87{fill:url(#Análogo_4-86);}.cls-88{fill:url(#Análogo_4-87);}.cls-89{fill:url(#Análogo_4-88);}.cls-90{fill:url(#Análogo_4-89);}.cls-91{fill:url(#Análogo_4-90);}.cls-92{fill:url(#Análogo_4-91);}.cls-93{fill:url(#Análogo_4-92);}.cls-94{fill:url(#Análogo_4-93);}.cls-95{fill:url(#Análogo_4-94);}.cls-96{fill:url(#Análogo_4-95);}.cls-97{fill:url(#Análogo_4-96);}.cls-98{fill:url(#Análogo_4-97);}.cls-99{fill:url(#Análogo_4-98);}.cls-100{fill:url(#Análogo_4-99);}.cls-101{fill:url(#Análogo_4-100);}.cls-102{fill:url(#Análogo_4-101);}.cls-103{fill:url(#Análogo_4-102);}.cls-104{fill:url(#Análogo_4-103);}.cls-105{fill:url(#Análogo_4-104);}.cls-106{fill:url(#Análogo_4-105);}.cls-107{fill:url(#Análogo_4-106);}.cls-108{fill:url(#Análogo_4-107);}.cls-109{fill:url(#Análogo_4-108);}.cls-110{fill:url(#Análogo_4-109);}.cls-111{fill:url(#Análogo_4-110);}.cls-112{fill:url(#Análogo_4-111);}.cls-113{fill:url(#Análogo_4-112);}.cls-114{fill:url(#Análogo_4-113);}.cls-115{fill:url(#Análogo_4-114);}.cls-116{fill:url(#Análogo_4-115);}.cls-117{fill:url(#Análogo_4-116);}.cls-118{fill:url(#Análogo_4-117);}.cls-119{fill:url(#Análogo_4-118);}.cls-120{fill:url(#Análogo_4-119);}.cls-121{fill:url(#Análogo_4-120);}.cls-122{fill:url(#Análogo_4-121);}.cls-123{fill:url(#Análogo_4-122);}.cls-124{fill:url(#Análogo_4-123);}.cls-125{fill:url(#Análogo_4-124);}.cls-126{fill:url(#Análogo_4-125);}.cls-127{fill:url(#Análogo_4-126);}.cls-128{fill:url(#Análogo_4-127);}.cls-129{fill:url(#Análogo_4-128);}.cls-130{fill:url(#Análogo_4-129);}.cls-131{fill:url(#Análogo_4-130);}.cls-132{fill:url(#Análogo_4-131);}.cls-133{fill:url(#Análogo_4-132);}.cls-134{fill:url(#Análogo_4-133);}.cls-135{fill:url(#Análogo_4-134);}.cls-136{fill:url(#Análogo_4-135);}.cls-137{fill:url(#Análogo_4-136);}.cls-138{fill:url(#Análogo_4-137);}.cls-139{fill:url(#Análogo_4-138);}.cls-140{fill:url(#Análogo_4-139);}.cls-141{fill:url(#Análogo_4-140);}.cls-142{fill:url(#Análogo_4-141);}.cls-143{fill:url(#Análogo_4-142);}.cls-144{fill:url(#Análogo_4-143);}.cls-145{fill:url(#Análogo_4-144);}.cls-146{fill:url(#Análogo_4-145);}.cls-147{fill:url(#Análogo_4-146);}.cls-148{fill:url(#Análogo_4-147);}.cls-149{fill:url(#Análogo_4-148);}.cls-150{fill:url(#Análogo_4-149);}.cls-151{fill:url(#Análogo_4-150);}.cls-152{fill:url(#Análogo_4-151);}.cls-153{fill:url(#Análogo_4-152);}.cls-154{fill:url(#Análogo_4-153);}.cls-155{fill:url(#Análogo_4-154);}.cls-156{fill:url(#Análogo_4-155);}.cls-157{fill:url(#Análogo_4-156);}.cls-158{fill:url(#Análogo_4-157);}.cls-159{fill:url(#Análogo_4-158);}.cls-160{fill:url(#Análogo_4-159);}.cls-161{fill:url(#Análogo_4-160);}.cls-162{fill:url(#Análogo_4-161);}.cls-163{fill:url(#Análogo_4-162);}.cls-164{font-size:136.86px;fill:#231f20;font-family:OstrichSans-Medium, Ostrich Sans;letter-spacing:0.23em;}</style><radialGradient id="Degradado_sin_nombre_2" cx="1604.72" cy="2323.4" r="36.96" gradientTransform="matrix(0.26, 0.97, -0.97, 0.26, 1948.7, -1965.17)" gradientUnits="userSpaceOnUse"><stop offset="0" stop-color="#76723e"/><stop offset="0.02" stop-color="#837241"/><stop offset="0.12" stop-color="#b3734b"/><stop offset="0.2" stop-color="#d17352"/><stop offset="0.24" stop-color="#dc7354"/><stop offset="0.31" stop-color="#e38444"/><stop offset="0.47" stop-color="#f2ac21"/><stop offset="0.6" stop-color="#fcc40b"/><stop offset="0.69" stop-color="#ffcd03"/><stop offset="0.81" stop-color="#dc7354"/><stop offset="1" stop-color="#942e40"/></radialGradient><linearGradient id="Análogo_4" x1="324.24" y1="403.47" x2="325.12" y2="403.47" gradientTransform="matrix(0.98, 0.2, -0.41, 1.99, 198.8, -866.89)" gradientUnits="userSpaceOnUse"><stop offset="0" stop-color="#fff200"/><stop offset="0.5" stop-color="#f5ae28"/><stop offset="1" stop-color="#6fbe45"/></linearGradient><linearGradient id="Análogo_4-2" x1="325.7" y1="412.93" x2="326.32" y2="412.93" xlink:href="#Análogo_4"/><linearGradient id="Análogo_4-3" x1="324.71" y1="417.92" x2="326.04" y2="417.92" xlink:href="#Análogo_4"/><linearGradient id="Análogo_4-4" x1="320.89" y1="424.17" x2="321.25" y2="424.17" xlink:href="#Análogo_4"/><linearGradient id="Análogo_4-5" x1="320.86" y1="423.67" x2="321.1" y2="423.67" xlink:href="#Análogo_4"/><linearGradient id="Análogo_4-6" x1="319.57" y1="427.35" x2="320.6" y2="427.35" xlink:href="#Análogo_4"/><linearGradient id="Análogo_4-7" x1="321.14" y1="428.6" x2="321.33" y2="428.6" xlink:href="#Análogo_4"/><linearGradient id="Análogo_4-8" x1="321.12" y1="427.65" x2="321.65" y2="427.65" xlink:href="#Análogo_4"/><linearGradient id="Análogo_4-9" x1="321.47" y1="425.48" x2="322.53" y2="425.48" xlink:href="#Análogo_4"/><linearGradient id="Análogo_4-10" x1="325.92" y1="420.37" x2="326.62" y2="420.37" xlink:href="#Análogo_4"/><linearGradient id="Análogo_4-11" x1="318.19" y1="433.95" x2="319.44" y2="433.95" xlink:href="#Análogo_4"/><linearGradient id="Análogo_4-12" x1="319.44" y1="434.9" x2="319.8" y2="434.9" xlink:href="#Análogo_4"/><linearGradient id="Análogo_4-13" x1="322.22" y1="428.43" x2="322.79" y2="428.43" xlink:href="#Análogo_4"/><linearGradient id="Análogo_4-14" x1="316.38" y1="439.04" x2="317.03" y2="439.04" xlink:href="#Análogo_4"/><linearGradient id="Análogo_4-15" x1="314.71" y1="443.3" x2="316.06" y2="443.3" xlink:href="#Análogo_4"/><linearGradient id="Análogo_4-16" x1="315.07" y1="445.15" x2="315.32" y2="445.15" xlink:href="#Análogo_4"/><linearGradient id="Análogo_4-17" x1="317.79" y1="438.02" x2="318.89" y2="438.02" xlink:href="#Análogo_4"/><linearGradient id="Análogo_4-18" x1="318.39" y1="438.61" x2="318.77" y2="438.61" xlink:href="#Análogo_4"/><linearGradient id="Análogo_4-19" x1="318.89" y1="437.56" x2="318.98" y2="437.56" xlink:href="#Análogo_4"/><linearGradient id="Análogo_4-20" x1="321.25" y1="433.24" x2="322.69" y2="433.24" xlink:href="#Análogo_4"/><linearGradient id="Análogo_4-21" x1="319.94" y1="436.33" x2="320.66" y2="436.33" xlink:href="#Análogo_4"/><linearGradient id="Análogo_4-22" x1="319.9" y1="437.43" x2="320.18" y2="437.43" xlink:href="#Análogo_4"/><linearGradient id="Análogo_4-23" x1="316.62" y1="444.44" x2="317.58" y2="444.44" xlink:href="#Análogo_4"/><linearGradient id="Análogo_4-24" x1="317.82" y1="441.06" x2="317.91" y2="441.06" xlink:href="#Análogo_4"/><linearGradient id="Análogo_4-25" x1="314.33" y1="452.37" x2="314.51" y2="452.37" xlink:href="#Análogo_4"/><linearGradient id="Análogo_4-26" x1="317.58" y1="442.82" x2="317.97" y2="442.82" xlink:href="#Análogo_4"/><linearGradient id="Análogo_4-27" x1="315.03" y1="447.29" x2="315.82" y2="447.29" xlink:href="#Análogo_4"/><linearGradient id="Análogo_4-28" x1="317.41" y1="441.24" x2="317.56" y2="441.24" xlink:href="#Análogo_4"/><linearGradient id="Análogo_4-29" x1="317.56" y1="441.62" x2="317.86" y2="441.62" xlink:href="#Análogo_4"/><linearGradient id="Análogo_4-30" x1="314.51" y1="454.44" x2="319.05" y2="454.44" xlink:href="#Análogo_4"/><linearGradient id="Análogo_4-31" x1="313.89" y1="450.86" x2="315.49" y2="450.86" xlink:href="#Análogo_4"/><linearGradient id="Análogo_4-32" x1="315.49" y1="447.53" x2="318.14" y2="447.53" xlink:href="#Análogo_4"/><linearGradient id="Análogo_4-33" x1="323.9" y1="435.26" x2="324.11" y2="435.26" xlink:href="#Análogo_4"/><linearGradient id="Análogo_4-34" x1="321.04" y1="435.73" x2="323.9" y2="435.73" xlink:href="#Análogo_4"/><linearGradient id="Análogo_4-35" x1="319.84" y1="442.85" x2="320.85" y2="442.85" xlink:href="#Análogo_4"/><linearGradient id="Análogo_4-36" x1="313.1" y1="452.84" x2="313.85" y2="452.84" xlink:href="#Análogo_4"/><linearGradient id="Análogo_4-37" x1="312.25" y1="455.39" x2="312.94" y2="455.39" xlink:href="#Análogo_4"/><linearGradient id="Análogo_4-38" x1="230.05" y1="599.48" x2="230.42" y2="599.48" xlink:href="#Análogo_4"/><linearGradient id="Análogo_4-39" x1="234.06" y1="595.63" x2="234.25" y2="595.63" xlink:href="#Análogo_4"/><linearGradient id="Análogo_4-40" x1="279.02" y1="519.56" x2="281.1" y2="519.56" xlink:href="#Análogo_4"/><linearGradient id="Análogo_4-41" x1="257.81" y1="562.1" x2="258.2" y2="562.1" xlink:href="#Análogo_4"/><linearGradient id="Análogo_4-42" x1="259.02" y1="565.23" x2="260.26" y2="565.23" xlink:href="#Análogo_4"/><linearGradient id="Análogo_4-43" x1="208.92" y1="618" x2="209.48" y2="618" xlink:href="#Análogo_4"/><linearGradient id="Análogo_4-44" x1="300.19" y1="483.22" x2="301.7" y2="483.22" xlink:href="#Análogo_4"/><linearGradient id="Análogo_4-45" x1="225.46" y1="592.72" x2="225.75" y2="592.72" xlink:href="#Análogo_4"/><linearGradient id="Análogo_4-46" x1="299.09" y1="485.12" x2="300.19" y2="485.12" xlink:href="#Análogo_4"/><linearGradient id="Análogo_4-47" x1="114.37" y1="659.61" x2="114.62" y2="659.61" xlink:href="#Análogo_4"/><linearGradient id="Análogo_4-48" x1="83.8" y1="657.8" x2="84.99" y2="657.8" xlink:href="#Análogo_4"/><linearGradient id="Análogo_4-49" x1="308.36" y1="465.73" x2="308.44" y2="465.73" xlink:href="#Análogo_4"/><linearGradient id="Análogo_4-50" x1="312.62" y1="464.22" x2="312.91" y2="464.22" xlink:href="#Análogo_4"/><linearGradient id="Análogo_4-51" x1="301.03" y1="493.5" x2="301.19" y2="493.5" xlink:href="#Análogo_4"/><linearGradient id="Análogo_4-52" x1="308.54" y1="465.46" x2="309.07" y2="465.46" xlink:href="#Análogo_4"/><linearGradient id="Análogo_4-53" x1="308.65" y1="464.88" x2="308.93" y2="464.88" xlink:href="#Análogo_4"/><linearGradient id="Análogo_4-54" x1="308.09" y1="466.22" x2="308.54" y2="466.22" xlink:href="#Análogo_4"/><linearGradient id="Análogo_4-55" x1="165.86" y1="639.43" x2="166.28" y2="639.43" xlink:href="#Análogo_4"/><linearGradient id="Análogo_4-56" x1="279.99" y1="536.33" x2="280.06" y2="536.33" xlink:href="#Análogo_4"/><linearGradient id="Análogo_4-57" x1="277.48" y1="537.26" x2="279.99" y2="537.26" xlink:href="#Análogo_4"/><linearGradient id="Análogo_4-58" x1="29.2" y1="215.17" x2="318.27" y2="215.17" gradientTransform="matrix(1.02, -0.09, -0.09, 1.43, 0.94, -4.5)" xlink:href="#Análogo_4"/><linearGradient id="Análogo_4-59" x1="259.45" y1="564.6" x2="259.99" y2="564.6" xlink:href="#Análogo_4"/><linearGradient id="Análogo_4-60" x1="209.04" y1="617.35" x2="209.11" y2="617.35" xlink:href="#Análogo_4"/><linearGradient id="Análogo_4-61" x1="299.52" y1="502.57" x2="300.36" y2="502.57" xlink:href="#Análogo_4"/><linearGradient id="Análogo_4-62" x1="310.09" y1="460.59" x2="310.83" y2="460.59" xlink:href="#Análogo_4"/><linearGradient id="Análogo_4-63" x1="319.33" y1="450.46" x2="319.88" y2="450.46" xlink:href="#Análogo_4"/><linearGradient id="Análogo_4-64" x1="313.73" y1="458.81" x2="314.74" y2="458.81" xlink:href="#Análogo_4"/><linearGradient id="Análogo_4-65" x1="314.79" y1="457.34" x2="315.07" y2="457.34" xlink:href="#Análogo_4"/><linearGradient id="Análogo_4-66" x1="307.45" y1="467.91" x2="308.28" y2="467.91" xlink:href="#Análogo_4"/><linearGradient id="Análogo_4-67" x1="315.41" y1="459.97" x2="316.45" y2="459.97" xlink:href="#Análogo_4"/><linearGradient id="Análogo_4-68" x1="312.94" y1="465.37" x2="313.84" y2="465.37" xlink:href="#Análogo_4"/><linearGradient id="Análogo_4-69" x1="313.68" y1="463.9" x2="314" y2="463.9" xlink:href="#Análogo_4"/><linearGradient id="Análogo_4-70" x1="315.18" y1="462.24" x2="316.01" y2="462.24" xlink:href="#Análogo_4"/><linearGradient id="Análogo_4-71" x1="305.79" y1="481.72" x2="306.55" y2="481.72" xlink:href="#Análogo_4"/><linearGradient id="Análogo_4-72" x1="309.86" y1="477.67" x2="310.95" y2="477.67" xlink:href="#Análogo_4"/><linearGradient id="Análogo_4-73" x1="309.03" y1="482.1" x2="309.71" y2="482.1" xlink:href="#Análogo_4"/><linearGradient id="Análogo_4-74" x1="294.55" y1="502.76" x2="296.34" y2="502.76" xlink:href="#Análogo_4"/><linearGradient id="Análogo_4-75" x1="288.19" y1="523.08" x2="289.75" y2="523.08" xlink:href="#Análogo_4"/><linearGradient id="Análogo_4-76" x1="288.46" y1="522.21" x2="288.52" y2="522.21" xlink:href="#Análogo_4"/><linearGradient id="Análogo_4-77" x1="77.5" y1="657.66" x2="78.86" y2="657.66" xlink:href="#Análogo_4"/><linearGradient id="Análogo_4-78" x1="75.33" y1="658.73" x2="76.45" y2="658.73" xlink:href="#Análogo_4"/><linearGradient id="Análogo_4-79" x1="242.55" y1="589.02" x2="243.82" y2="589.02" xlink:href="#Análogo_4"/><linearGradient id="Análogo_4-80" x1="229.05" y1="600.82" x2="230.27" y2="600.82" xlink:href="#Análogo_4"/><linearGradient id="Análogo_4-81" x1="218.85" y1="611.26" x2="220.65" y2="611.26" xlink:href="#Análogo_4"/><linearGradient id="Análogo_4-82" x1="639.39" y1="363.3" x2="640.45" y2="363.3" gradientTransform="matrix(1, 0, 0, 1, 0, 0)" xlink:href="#Análogo_4"/><linearGradient id="Análogo_4-83" x1="625.97" y1="362.59" x2="628.02" y2="362.59" gradientTransform="matrix(1, 0, 0, 1, 0, 0)" xlink:href="#Análogo_4"/><linearGradient id="Análogo_4-84" x1="617.64" y1="360.47" x2="624.45" y2="360.47" gradientTransform="matrix(1, 0, 0, 1, 0, 0)" xlink:href="#Análogo_4"/><linearGradient id="Análogo_4-85" x1="613.73" y1="352.96" x2="615.26" y2="352.96" gradientTransform="matrix(1, 0, 0, 1, 0, 0)" xlink:href="#Análogo_4"/><linearGradient id="Análogo_4-86" x1="615.05" y1="352.89" x2="615.52" y2="352.89" gradientTransform="matrix(1, 0, 0, 1, 0, 0)" xlink:href="#Análogo_4"/><linearGradient id="Análogo_4-87" x1="609.8" y1="350.87" x2="611.78" y2="350.87" gradientTransform="matrix(1, 0, 0, 1, 0, 0)" xlink:href="#Análogo_4"/><linearGradient id="Análogo_4-88" x1="608.19" y1="352.46" x2="609.03" y2="352.46" gradientTransform="matrix(1, 0, 0, 1, 0, 0)" xlink:href="#Análogo_4"/><linearGradient id="Análogo_4-89" x1="609.03" y1="352.85" x2="610.8" y2="352.85" gradientTransform="matrix(1, 0, 0, 1, 0, 0)" xlink:href="#Análogo_4"/><linearGradient id="Análogo_4-90" x1="611.32" y1="354.06" x2="613.49" y2="354.06" gradientTransform="matrix(1, 0, 0, 1, 0, 0)" xlink:href="#Análogo_4"/><linearGradient id="Análogo_4-91" x1="616.27" y1="361.28" x2="618.25" y2="361.28" gradientTransform="matrix(1, 0, 0, 1, 0, 0)" xlink:href="#Análogo_4"/><linearGradient id="Análogo_4-92" x1="601.86" y1="348.2" x2="603.08" y2="348.2" gradientTransform="matrix(1, 0, 0, 1, 0, 0)" xlink:href="#Análogo_4"/><linearGradient id="Análogo_4-93" x1="600.02" y1="349.4" x2="601.86" y2="349.4" gradientTransform="matrix(1, 0, 0, 1, 0, 0)" xlink:href="#Análogo_4"/><linearGradient id="Análogo_4-94" x1="606.51" y1="354.45" x2="610.15" y2="354.45" gradientTransform="matrix(1, 0, 0, 1, 0, 0)" xlink:href="#Análogo_4"/><linearGradient id="Análogo_4-95" x1="595.4" y1="344.67" x2="597.58" y2="344.67" gradientTransform="matrix(1, 0, 0, 1, 0, 0)" xlink:href="#Análogo_4"/><linearGradient id="Análogo_4-96" x1="589.68" y1="342.46" x2="593.05" y2="342.46" gradientTransform="matrix(1, 0, 0, 1, 0, 0)" xlink:href="#Análogo_4"/><linearGradient id="Análogo_4-97" x1="587.93" y1="342.08" x2="589.68" y2="342.08" gradientTransform="matrix(1, 0, 0, 1, 0, 0)" xlink:href="#Análogo_4"/><linearGradient id="Análogo_4-98" x1="596.89" y1="347.2" x2="597.54" y2="347.2" gradientTransform="matrix(1, 0, 0, 1, 0, 0)" xlink:href="#Análogo_4"/><linearGradient id="Análogo_4-99" x1="595.7" y1="347.52" x2="596.96" y2="347.52" gradientTransform="matrix(1, 0, 0, 1, 0, 0)" xlink:href="#Análogo_4"/><linearGradient id="Análogo_4-100" x1="597.54" y1="348.12" x2="597.68" y2="348.12" gradientTransform="matrix(1, 0, 0, 1, 0, 0)" xlink:href="#Análogo_4"/><linearGradient id="Análogo_4-101" x1="601.05" y1="353.11" x2="603.48" y2="353.11" gradientTransform="matrix(1, 0, 0, 1, 0, 0)" xlink:href="#Análogo_4"/><linearGradient id="Análogo_4-102" x1="597.77" y1="350.3" x2="599.86" y2="350.3" gradientTransform="matrix(1, 0, 0, 1, 0, 0)" xlink:href="#Análogo_4"/><linearGradient id="Análogo_4-103" x1="596.81" y1="349.78" x2="597.77" y2="349.78" gradientTransform="matrix(1, 0, 0, 1, 0, 0)" xlink:href="#Análogo_4"/><linearGradient id="Análogo_4-104" x1="587.57" y1="344.95" x2="590.68" y2="344.95" gradientTransform="matrix(1, 0, 0, 1, 0, 0)" xlink:href="#Análogo_4"/><linearGradient id="Análogo_4-105" x1="593.23" y1="346.29" x2="593.42" y2="346.29" gradientTransform="matrix(1, 0, 0, 1, 0, 0)" xlink:href="#Análogo_4"/><linearGradient id="Análogo_4-106" x1="579.21" y1="340.8" x2="579.37" y2="340.8" gradientTransform="matrix(1, 0, 0, 1, 0, 0)" xlink:href="#Análogo_4"/><linearGradient id="Análogo_4-107" x1="590.06" y1="346.02" x2="591.91" y2="346.02" gradientTransform="matrix(1, 0, 0, 1, 0, 0)" xlink:href="#Análogo_4"/><linearGradient id="Análogo_4-108" x1="585.34" y1="342.41" x2="586.23" y2="342.41" gradientTransform="matrix(1, 0, 0, 1, 0, 0)" xlink:href="#Análogo_4"/><linearGradient id="Análogo_4-109" x1="593.15" y1="345.69" x2="593.27" y2="345.69" gradientTransform="matrix(1, 0, 0, 1, 0, 0)" xlink:href="#Análogo_4"/><linearGradient id="Análogo_4-110" x1="591.91" y1="346.03" x2="593.23" y2="346.03" gradientTransform="matrix(1, 0, 0, 1, 0, 0)" xlink:href="#Análogo_4"/><linearGradient id="Análogo_4-111" x1="571.57" y1="344.35" x2="579.35" y2="344.35" gradientTransform="matrix(1, 0, 0, 1, 0, 0)" xlink:href="#Análogo_4"/><linearGradient id="Análogo_4-112" x1="579.37" y1="341.24" x2="582.89" y2="341.24" gradientTransform="matrix(1, 0, 0, 1, 0, 0)" xlink:href="#Análogo_4"/><linearGradient id="Análogo_4-113" x1="582.89" y1="344.48" x2="587.57" y2="344.48" gradientTransform="matrix(1, 0, 0, 1, 0, 0)" xlink:href="#Análogo_4"/><linearGradient id="Análogo_4-114" x1="598.46" y1="355.93" x2="598.71" y2="355.93" gradientTransform="matrix(1, 0, 0, 1, 0, 0)" xlink:href="#Análogo_4"/><linearGradient id="Análogo_4-115" x1="597.4" y1="353.54" x2="599.95" y2="353.54" gradientTransform="matrix(1, 0, 0, 1, 0, 0)" xlink:href="#Análogo_4"/><linearGradient id="Análogo_4-116" x1="588.66" y1="349.87" x2="591.51" y2="349.87" gradientTransform="matrix(1, 0, 0, 1, 0, 0)" xlink:href="#Análogo_4"/><linearGradient id="Análogo_4-117" x1="577.82" y1="339.4" x2="580.12" y2="339.4" gradientTransform="matrix(1, 0, 0, 1, 0, 0)" xlink:href="#Análogo_4"/><linearGradient id="Análogo_4-118" x1="575.27" y1="338.15" x2="576.45" y2="338.15" gradientTransform="matrix(1, 0, 0, 1, 0, 0)" xlink:href="#Análogo_4"/><linearGradient id="Análogo_4-119" x1="394.29" y1="242.67" x2="395.15" y2="242.67" gradientTransform="matrix(1, 0, 0, 1, 0, 0)" xlink:href="#Análogo_4"/><linearGradient id="Análogo_4-120" x1="399.45" y1="246.76" x2="400.03" y2="246.76" gradientTransform="matrix(1, 0, 0, 1, 0, 0)" xlink:href="#Análogo_4"/><linearGradient id="Análogo_4-121" x1="495.39" y1="297.74" x2="497.01" y2="297.74" gradientTransform="matrix(1, 0, 0, 1, 0, 0)" xlink:href="#Análogo_4"/><linearGradient id="Análogo_4-122" x1="441.89" y1="272.71" x2="443.37" y2="272.71" gradientTransform="matrix(1, 0, 0, 1, 0, 0)" xlink:href="#Análogo_4"/><linearGradient id="Análogo_4-123" x1="437.01" y1="275.46" x2="437.73" y2="275.46" gradientTransform="matrix(1, 0, 0, 1, 0, 0)" xlink:href="#Análogo_4"/><linearGradient id="Análogo_4-124" x1="369.27" y1="221.11" x2="370.98" y2="221.11" gradientTransform="matrix(1, 0, 0, 1, 0, 0)" xlink:href="#Análogo_4"/><linearGradient id="Análogo_4-125" x1="540.19" y1="322.9" x2="542.1" y2="322.9" gradientTransform="matrix(1, 0, 0, 1, 0, 0)" xlink:href="#Análogo_4"/><linearGradient id="Análogo_4-126" x1="405.94" y1="234.37" x2="407.02" y2="234.37" gradientTransform="matrix(1, 0, 0, 1, 0, 0)" xlink:href="#Análogo_4"/><linearGradient id="Análogo_4-127" x1="537.55" y1="321.16" x2="540.19" y2="321.16" gradientTransform="matrix(1, 0, 0, 1, 0, 0)" xlink:href="#Análogo_4"/><linearGradient id="Análogo_4-128" x1="305.21" y1="123.31" x2="305.33" y2="123.31" gradientTransform="matrix(1, 0, 0, 1, 0, 0)" xlink:href="#Análogo_4"/><linearGradient id="Análogo_4-129" x1="305.53" y1="88.25" x2="306.06" y2="88.25" gradientTransform="matrix(1, 0, 0, 1, 0, 0)" xlink:href="#Análogo_4"/><linearGradient id="Análogo_4-130" x1="562.82" y1="332.31" x2="563.19" y2="332.31" gradientTransform="matrix(1, 0, 0, 1, 0, 0)" xlink:href="#Análogo_4"/><linearGradient id="Análogo_4-131" x1="563.33" y1="338.76" x2="563.89" y2="338.76" gradientTransform="matrix(1, 0, 0, 1, 0, 0)" xlink:href="#Análogo_4"/><linearGradient id="Análogo_4-132" x1="526.68" y1="324.49" x2="526.74" y2="324.49" gradientTransform="matrix(1, 0, 0, 1, 0, 0)" xlink:href="#Análogo_4"/><linearGradient id="Análogo_4-133" x1="562.88" y1="332.91" x2="563.6" y2="332.91" gradientTransform="matrix(1, 0, 0, 1, 0, 0)" xlink:href="#Análogo_4"/><linearGradient id="Análogo_4-134" x1="563.74" y1="332.86" x2="564.39" y2="332.86" gradientTransform="matrix(1, 0, 0, 1, 0, 0)" xlink:href="#Análogo_4"/><linearGradient id="Análogo_4-135" x1="561.82" y1="332.22" x2="562.88" y2="332.22" gradientTransform="matrix(1, 0, 0, 1, 0, 0)" xlink:href="#Análogo_4"/><linearGradient id="Análogo_4-136" x1="339.74" y1="175.45" x2="340.33" y2="175.45" gradientTransform="matrix(1, 0, 0, 1, 0, 0)" xlink:href="#Análogo_4"/><linearGradient id="Análogo_4-137" x1="472.28" y1="300.3" x2="472.39" y2="300.3" gradientTransform="matrix(1, 0, 0, 1, 0, 0)" xlink:href="#Análogo_4"/><linearGradient id="Análogo_4-138" x1="469.37" y1="298.41" x2="473.74" y2="298.41" gradientTransform="matrix(1, 0, 0, 1, 0, 0)" xlink:href="#Análogo_4"/><linearGradient id="Análogo_4-139" x1="294.67" y1="211.06" x2="573.78" y2="211.06" gradientTransform="matrix(1, 0, 0, 1, 0, 0)" xlink:href="#Análogo_4"/><linearGradient id="Análogo_4-140" x1="438.14" y1="275.45" x2="438.54" y2="275.45" gradientTransform="matrix(1, 0, 0, 1, 0, 0)" xlink:href="#Análogo_4"/><linearGradient id="Análogo_4-141" x1="370.98" y1="220.7" x2="371.3" y2="220.7" gradientTransform="matrix(1, 0, 0, 1, 0, 0)" xlink:href="#Análogo_4"/><linearGradient id="Análogo_4-142" x1="513.94" y1="324.11" x2="514.59" y2="324.11" gradientTransform="matrix(1, 0, 0, 1, 0, 0)" xlink:href="#Análogo_4"/><linearGradient id="Análogo_4-143" x1="568.64" y1="335.1" x2="570.32" y2="335.1" gradientTransform="matrix(1, 0, 0, 1, 0, 0)" xlink:href="#Análogo_4"/><linearGradient id="Análogo_4-144" x1="579.32" y1="348.64" x2="580.68" y2="348.64" gradientTransform="matrix(1, 0, 0, 1, 0, 0)" xlink:href="#Análogo_4"/><linearGradient id="Análogo_4-145" x1="569.5" y1="340.71" x2="571.66" y2="340.71" gradientTransform="matrix(1, 0, 0, 1, 0, 0)" xlink:href="#Análogo_4"/><linearGradient id="Análogo_4-146" x1="571.74" y1="341.72" x2="572.87" y2="341.72" gradientTransform="matrix(1, 0, 0, 1, 0, 0)" xlink:href="#Análogo_4"/><linearGradient id="Análogo_4-147" x1="559.1" y1="331.63" x2="561.35" y2="331.63" gradientTransform="matrix(1, 0, 0, 1, 0, 0)" xlink:href="#Análogo_4"/><linearGradient id="Análogo_4-148" x1="567.82" y1="343.29" x2="568.96" y2="343.29" gradientTransform="matrix(1, 0, 0, 1, 0, 0)" xlink:href="#Análogo_4"/><linearGradient id="Análogo_4-149" x1="560.74" y1="339.78" x2="562.94" y2="339.78" gradientTransform="matrix(1, 0, 0, 1, 0, 0)" xlink:href="#Análogo_4"/><linearGradient id="Análogo_4-150" x1="562.94" y1="340.35" x2="564.43" y2="340.35" gradientTransform="matrix(1, 0, 0, 1, 0, 0)" xlink:href="#Análogo_4"/><linearGradient id="Análogo_4-151" x1="564.62" y1="342.86" x2="566.14" y2="342.86" gradientTransform="matrix(1, 0, 0, 1, 0, 0)" xlink:href="#Análogo_4"/><linearGradient id="Análogo_4-152" x1="540.46" y1="330.55" x2="542.68" y2="330.55" gradientTransform="matrix(1, 0, 0, 1, 0, 0)" xlink:href="#Análogo_4"/><linearGradient id="Análogo_4-153" x1="545.11" y1="336.32" x2="546.32" y2="336.32" gradientTransform="matrix(1, 0, 0, 1, 0, 0)" xlink:href="#Análogo_4"/><linearGradient id="Análogo_4-154" x1="538.79" y1="335.29" x2="541.25" y2="335.29" gradientTransform="matrix(1, 0, 0, 1, 0, 0)" xlink:href="#Análogo_4"/><linearGradient id="Análogo_4-155" x1="514.42" y1="317.52" x2="516.4" y2="317.52" gradientTransform="matrix(1, 0, 0, 1, 0, 0)" xlink:href="#Análogo_4"/><linearGradient id="Análogo_4-156" x1="486.77" y1="311.29" x2="489.95" y2="311.29" gradientTransform="matrix(1, 0, 0, 1, 0, 0)" xlink:href="#Análogo_4"/><linearGradient id="Análogo_4-157" x1="489.42" y1="310.44" x2="490.33" y2="310.44" gradientTransform="matrix(1, 0, 0, 1, 0, 0)" xlink:href="#Análogo_4"/><linearGradient id="Análogo_4-158" x1="304.86" y1="81.19" x2="305.59" y2="81.19" gradientTransform="matrix(1, 0, 0, 1, 0, 0)" xlink:href="#Análogo_4"/><linearGradient id="Análogo_4-159" x1="302" y1="79.37" x2="304.07" y2="79.37" gradientTransform="matrix(1, 0, 0, 1, 0, 0)" xlink:href="#Análogo_4"/><linearGradient id="Análogo_4-160" x1="406.96" y1="257.35" x2="407.6" y2="257.35" gradientTransform="matrix(1, 0, 0, 1, 0, 0)" xlink:href="#Análogo_4"/><linearGradient id="Análogo_4-161" x1="392.29" y1="242.29" x2="393.33" y2="242.29" gradientTransform="matrix(1, 0, 0, 1, 0, 0)" xlink:href="#Análogo_4"/><linearGradient id="Análogo_4-162" x1="377.77" y1="232.44" x2="379.61" y2="232.44" gradientTransform="matrix(1, 0, 0, 1, 0, 0)" xlink:href="#Análogo_4"/></defs><title>Asset 2</title><g id="Layer_2" data-name="Layer 2"><g id="Capa_1" data-name="Capa 1"><g id="_Group_" data-name="&lt;Group&gt;"><path id="_Path_" data-name="&lt;Path&gt;" class="cls-1" d="M137.35,156.11l-1.2-1.14c2.14-.43,3.28.55,2.27-.93-.55,1-2,.56-3.42.13s-2.95-.71-3.31.43l-.88-.67c.28.08.35,0,.63,0-1.75-1.44-1.72,1.3-4.1.72-.83-.27-1.42-.66-.81-.88-.66.14-1.33.34-2,.51-.56-.05-.43-.45.14-.4-.5,0-1,0-1.5.09l-1.49.21,0-.07c-.4.41-1.29,1-1.69,1.34-.77-.19.33-.31.1-.56l-1.49.86c-.77-.45.44-1.31,1.59-1.42-.93-1-1.28-.79-1.8-.42a3.92,3.92,0,0,1-3,.72c.48-.24,1-.52,1.46-.73a2.54,2.54,0,0,0-2-.47,20.87,20.87,0,0,1-2.53.18c.15.06.48.1.88.2a9.77,9.77,0,0,1,1.25.39c.77.32,1.24.75.47,1.3a2.26,2.26,0,0,0-1.93.92c-.31-.76-1.12-.2-2.19.32l-.4-1c-1,.88-.67,1.35-1.1,2.13a2.16,2.16,0,0,1-1.57.18,4.09,4.09,0,0,1-1.09-.55c-1,.59-.5.64,0,.77s1,.34-.08,1.17a6.45,6.45,0,0,0-1.19.62,5.45,5.45,0,0,0-.92.86,12.59,12.59,0,0,0-.83,1.07,10.73,10.73,0,0,0-.83,1.33c-1.18.62-.3-.64-.84-.55l-.22,1.43c-.21.18-.34-.07-.4-.2a.79.79,0,0,0,.09.91c.13.25.2.53-.16,1.19.32.55-.49.81-1.43,1.26A2.74,2.74,0,0,0,98,169.68c-.52.19-.42-.56-.85-.69a18.84,18.84,0,0,0-.59,2.38,10.33,10.33,0,0,0-.08,2.18L95,174.76c.66-.39,1-.1,1.22.47a14.43,14.43,0,0,1,.39,2.2c.53-.23,1-.42,1.23-.56-.12.71-.19,1.44-.28,2.14-.26.16-.53-.16-.82-.66a4.5,4.5,0,0,0,.09.46c-.67.55-1.11,0-1.46-.78.3-.17.62-.32.92-.47-.41-.75-.87-1.54-1.49-1.7a1.84,1.84,0,0,1,0,.81c-.11-.21-.22-.36-.35-.34s0,.34.11.79l-1.33,0,.4.3a28.81,28.81,0,0,0-1.74,2.62,30.53,30.53,0,0,0,1.14,3.66c.1.31.19.63.27,1s.2.66.28,1a13.15,13.15,0,0,1,.3,2.22c-.82-.88-1.44-.32-2.49-.46.62-.41.6-1.06.48-1.85-.06-.4-.14-.83-.17-1.27a3.66,3.66,0,0,1,.2-1.3c-.33.88-.78.58-.89.31a31.54,31.54,0,0,0,.46,3.34c-.84-.18-.78.59-1.15,1.42.87-.25,1.12.37,1.22,1.2,0,.42.06.89.08,1.34a3.53,3.53,0,0,0,.28,1.19.79.79,0,0,1-.79-.26,1.9,1.9,0,0,1-.24-1.54c-.71.87-.15,1.47.4,2s1.13,1,.63,1.92c0-.38,0-.59-.26-.72.48.85.49,3-.1,2.6l-.07-.38a18.82,18.82,0,0,0,.3,2.3,23.58,23.58,0,0,0,.8,2.49c.67,1.55,1.58,2.69,2.3,2.6a8.76,8.76,0,0,1-2.07.28c.52.22,1,.43,1.53.62s1.06.36,1.58.52c1.05.32,2,.61,3.09.82a10,10,0,0,0-2.29,1.37c-.82.51-1.76.86-2.51,0a3.46,3.46,0,0,0,1.32,2.33c-.06-.46,1.07-1.77,1.44-1.35-.43,2-.18,1.3-.09,3.52-.13-.66,1.89-1.17,2.36-.37-.32,0-1.53,1.18-1.9,1,.5.15,1,.31,1.47.44l1.5.34c-.64-.24-1.35.91-1.42,1.69.07-.22.39.2.77.73a5.67,5.67,0,0,0,1.16,1.28l-.38-1.05a2.88,2.88,0,0,0,2.73,1.12,3.31,3.31,0,0,1,2.83.76c-.48.1-2.22,1.28-1.35,2.4.56-.16,1.88-.64,3.26-1a17,17,0,0,1,2.09-.43,4.81,4.81,0,0,1,1.87,0l0,.7a16.55,16.55,0,0,0,1.72.31,13.57,13.57,0,0,1-1.63.63c-.64.19-1.39.37-2.16.52a16.09,16.09,0,0,1-4.25.33c.53,1-.19.7,1.08,1.63.13.77-1.16.11-1.55-.16a37,37,0,0,0,2.83,2.46c.26-.54,1-.34,1.73-.22s1.47.27,1.65-.18c-.66-.16-1.34-.3-2-.49l-2-.62a2.8,2.8,0,0,1,2.29-.9,5.64,5.64,0,0,1,3.35.82c.33.72-1.39,1.56-1.54,1.91.47-.14,2.5.46,2.59.8l-1.25.07c1.14,1,2.71-.33,3.89,1.27.51.29,1.18,2,1.51,1.4-.55-1.53.76-5.43,1.59-6.14a21.43,21.43,0,0,1,2.69,2.74c.31.62-.14,1.13-.64,1.6s-1,.92-.74,1.46c.11-.29.72-.52,1-.59.53.41-.48.92.88,1,.45-1.1,2.65.56.81-.86,1.32-.12,1.3.49,2.81.64-.37-.78,1.59-2.46,2.76-2.72-.08.29.17.69.3.88.62.09,1.18.11,1.69.15l1.47.16c.48.05,1,.12,1.46.13a15.75,15.75,0,0,0,1.62-.13c.25.25,1.45.43,1,1a2.59,2.59,0,0,1,1.29-.83c.79.33.4.46,0,.63s-.94.29-.28.8c0-.62,1.74-1.33,2.66-2-.29-.47-.88-.38-1.52-.09a8.19,8.19,0,0,0-1,.54l-.88.48a3,3,0,0,1,.82-2.26,8.12,8.12,0,0,1,2.5-2.14c1.66-.85,1,.66,1.28.38a3.63,3.63,0,0,0,2.62-2,2.24,2.24,0,0,1,2.24-1.47c1.43.38.84,1.63,1.35,2.12-1.29.94-2.42.43-3.36.86.45,0,.89-.07,1.35-.11a3,3,0,0,1-.81.74,1.77,1.77,0,0,1-1,.28c.63.28,2.06-.31,3.69-1,.83-.31,1.64-.79,2.46-1.16s1.64-.66,2.31-.93c.26-.54.79-1.29.25-1.37l-.66.6c-1.05-.18.8-1.77-.29-1.45a6.8,6.8,0,0,1,2.69-3.08l.89.62c-.22-.21-1.2.17-1.35.71.21-.77,2.82-.47,2.5-2l-1.34.15c.58-1.08.72-2.87,1.91-3.56-1.17-.3-.15.31-1.66.1.81.25.2.84-.36,1.39s-1.18,1-.15,1.15c-1.67-.47-1.69.65-3.41.43.23.26.76.29-.26.76a1.35,1.35,0,0,1,0,.39l-.08,0h.07c0,.07,0,.08,0,0a1.41,1.41,0,0,1,.78.11c0,.95-1.54,2-1.87,2.65-.69.19,0-.48-.47-.61l-.51,1c-.47-.62-2.18-.26-1-1.4l-1.24.64a6.55,6.55,0,0,0-1.42.21,2.38,2.38,0,0,0-1.1.64c-.65.11-1.21,1.46-.9.67-.63.4-1.28.76-1.93,1.15l-.08-.18a15,15,0,0,0-1.54.63c-.52.22-1.05.46-1.6.67a4.61,4.61,0,0,1-3.63.07,7.29,7.29,0,0,1-1.13.41,5,5,0,0,1-1.53,0l-.26-.65a4.13,4.13,0,0,1-1.76-.12c-.61-.15-1.15-.24-1.37.09-.43-.94-1.49-1-2.62-1.19-.57-.06-1.17-.07-1.72-.1a3.33,3.33,0,0,1-1.39-.35l-.28.82a23.05,23.05,0,0,0-3.55-.58l-.2.74a3,3,0,0,1-2.09-.94c-.35-.29-.72-.59-1.1-.88a7.71,7.71,0,0,0-1.19-.83c.26-.19.64.12.86.45-.58-1.34-1.76-1.62-2.94-2s-2.41-.76-2.84-1.9a1.13,1.13,0,0,1-1-.84.25.25,0,0,0,.12.06l-.15-.15c-.08-.26-.15-.53-.26-.79a2.33,2.33,0,0,0,.17.72,6.62,6.62,0,0,0-1.4-.88l.4-.76-.11-.08c-.18-.64-.6-.07-.82.59a3,3,0,0,0-.91-.25c.65-1.25-1.46-.87-.78-2.33-.39.06-1-.45-1.62-.9s-1.3-.92-2-.65c.14-.12.11-.33.32-.05a2.78,2.78,0,0,0-1.17-1.65l.75-.79q-1-.29-2-.63c.1-1.12.34-1.61,1.41-1.17a6.68,6.68,0,0,1-1.56-1.36,8.54,8.54,0,0,0-1.42-1.26l.66-.15c-.24-.6-1.47-1.34-1.06-1.89.46-.92-.06-2.64-.27-4.73l-.11-.79c0-.27,0-.54,0-.81,0-.54,0-1.09,0-1.64a7.16,7.16,0,0,1,.22-1.58,10.28,10.28,0,0,1,.42-1.44c-1,.27-.8-.15-.43-.65s.78-1.08,0-1.28c.5-.15.83-.6,1.15,0a4.11,4.11,0,0,1,.48-2.18,2.13,2.13,0,0,0-.09-1.92c.52-.06.54.58.86.48-.05-.17-.21-.68.12-.78s.29.38.4.71a2,2,0,0,0-.37-2A5.19,5.19,0,0,0,98,179.64c1-.71,1.09-1.18.57-2.25.58-.13,1.23-.45.85.73.15-.31.81-1.17,1.26-2s.87-1.66.41-2c.35,0,.58-.79.58-1,1-1.23,1.11-1.31,2-2.57l-.42.21c-.62-1.3.63-1.17,1.34-2.23l.07.12c1.36-.7,1.5-1,1.65-1.26s.3-.59,1.74-1l-.64-.53c-.46-.76.22-1,1.08-1.18s2-.24,2.49-1l-.74-.06a.67.67,0,0,1,.72-.34,5.2,5.2,0,0,1,1.24.32,6.55,6.55,0,0,0,2.16.65c.23.06-.15.35-.31.57.58,0,.86-.06,1-.18s.06-.27,0-.47c-.18-.39-.49-.9.23-1.34.49.42.23,1.5,1.23,1.19.31.08.87-.53,1.61-1.19a2.37,2.37,0,0,1,2.52-.73c-.38-.38-.81-.75-.1-1.23.57-.24,1.44.19,2.22.37s1.51.31,2.06-.38a.48.48,0,0,1,.2.35,6.53,6.53,0,0,1,.85-.24l1.06-.16a4,4,0,0,0,1.76-.61c.2,1.5,1.63,1.35,3,1.4.35,0,.69,0,1,0a3,3,0,0,1,.82.18c.45.18.66.5.43,1.11.92.24,1.78.65,2.67,1l-.18.21a4.28,4.28,0,0,0,1.86.71,5.28,5.28,0,0,0,1.39-.16c.27.39-.13.42-.23.52a10.81,10.81,0,0,0,2.11,1.74,13.3,13.3,0,0,0,2.58.69l-.4.78c.19,0,.41.24.66.59s.46.87.75,1.38.56,1.09.92,1.62a8.53,8.53,0,0,0,.59.75,3.73,3.73,0,0,0,.66.67.59.59,0,0,1-.46,0,3.33,3.33,0,0,1,.68.81,4.48,4.48,0,0,1,.33,1,4.53,4.53,0,0,1,.15,1.07v1c0,.16,0,.32,0,.47s0,.3,0,.44a1.9,1.9,0,0,0,.13.76,2,2,0,0,0,1.33,1.07,11.93,11.93,0,0,1,.62,1.86c.26-1.18.57-1.08.91-.77s.69.86,1,.33a2.1,2.1,0,0,1-.65,1.52c-.34.32-.66.33-.63-.29l.19-.16c-.76-.36-1,.37-1.3,1.11s-.61,1.54-1.09,1.31a15.86,15.86,0,0,1-4,5.76,40,40,0,0,1-5.44,4.27l1.16.7c-.46.3-.91.61-1.39.87-.52,0-1-.51,0-1.09-.45-.13-.76.25-1,.7a2.17,2.17,0,0,0-.24,1.08c-1.11.36-1.08-.08-.88-.55s.58-1,.29-.82l-.73.54.25,0c-.4.79-.2,1.33-1.48,1.88-.9.14-.72-.51-1-.41,0-.08-.15-.08-.49.16-.62.23-1.24.4-1.86.59l1.07.67c-.68.78-1.84.53-.59,1.33-.94-.61-2.77-.23-4.52,0s-3.42.23-3.77-.09a4.15,4.15,0,0,1-3.74-.3.74.74,0,0,1,0,.76c-.16.26-.51.37-1.1,0,.71-.95.28-1.37-.27-1.91a4.44,4.44,0,0,1-.84-.88,1.62,1.62,0,0,1-.32-1.21c0,.71-.71.22-1.42-.23s-1.39-.9-1.4.15c-.64-.91.55-.64.4-1.6a5.62,5.62,0,0,1-2.41-3.18c-.53-1.34-.75-2.75-1.17-4-.31,0-.65.59-1.22.06a9.69,9.69,0,0,1,1.3-1.64c-.11-.25-.5-.35-.79-.53s-.43-.46.14-.89c-.28.1-.67.3-.72-.09a10.59,10.59,0,0,0,.38-1c.14-.32.3-.63.43-.95a8.36,8.36,0,0,1,.45-.92,7,7,0,0,1,.5-.9,13.6,13.6,0,0,1,2.74-3.34,10,10,0,0,1,4-2.12,8.42,8.42,0,0,1,2.29-.26,7.37,7.37,0,0,1,2.29.49c-.83-.52-.32-.61.3-.69-.41-.1,0-.74-.14-1.14a12.17,12.17,0,0,1,1.33.54l.63.28.61.34c.27-.53,1-.53,1.64-.39a4.07,4.07,0,0,0,.93.09.67.67,0,0,0,.63-.33,5.78,5.78,0,0,0-.87,0c.69-.52.48-1.28.05-2.12s-1-1.77-.85-2.55c-.86.66-1.76,0-2.94-.46a8.2,8.2,0,0,0-.91-.31,3.6,3.6,0,0,0-1-.08,2.44,2.44,0,0,0-1.84.88c-.62-.23.4-.6,0-.93a2.13,2.13,0,0,1-1,.84,5.38,5.38,0,0,1-1.75.33l.11-.21c-2,.69-3.42,1.17-4.91,1.82a16.13,16.13,0,0,0-5,3.12l.85.27a7.62,7.62,0,0,1-1.61,1c.12.88.58.26,1.08-.3s1.1-1.05,1.21-.19c-1.06-.09-2.36,1.34-3.26,3-.25.39-.42.83-.63,1.22s-.41.77-.57,1.12a2.45,2.45,0,0,1-1.28,1.36c-.3,1.77,1-.32.71,1.39l-.57.39c.2.17.38.34.6.49a1.89,1.89,0,0,1-1.21,1.73,5.61,5.61,0,0,0-.13-1.13,3.73,3.73,0,0,0-.24,1.35,10.06,10.06,0,0,0,.21,1.47,18,18,0,0,1,.51,2c0-.58,0-1.13,0-1.7a27.2,27.2,0,0,0,2.58,6.87,13.72,13.72,0,0,0,4.61,5.08l0-.48a8.64,8.64,0,0,1,1.42,1,4.6,4.6,0,0,1,.74.8,4.68,4.68,0,0,0,.78.87,6.42,6.42,0,0,0,1.65,1.06h-.16a5,5,0,0,1,1.25.23,6,6,0,0,1,1.31.5c-.49,0-.21.41.08.75s.57.69-.11.7a9.08,9.08,0,0,0,1.93.17,1.89,1.89,0,0,0,.76-.14,12.27,12.27,0,0,1,1.74-.95c.13.24.28.47.42.69a3.9,3.9,0,0,1,2.51-.9c-.66.26-.42.5-.17.77s.49.56-.31.9a5.14,5.14,0,0,0,4.24-.24c1-.44,1.76-.81,2.82,0,.56-1.07-.25-1.08-1.07-1s-1.73.37-1.32.12c-.42-.22-.15-.6.34-.92a4,4,0,0,1,1.69-.7c.51-.14,1.1.3,1.91.6a4.62,4.62,0,0,0,1.39.3,4.16,4.16,0,0,0,1.76-.37c-.26.1-.23.23-.49.33,1.17,0,1.63-1.38,3.09-1.35.13-1.25,1.49-.79,1-2-.66.52-1.33,1-2,1.5a10.7,10.7,0,0,0,1.42-1.94,5.33,5.33,0,0,1,.89-1,4.26,4.26,0,0,1,1.38-.71,3.3,3.3,0,0,1-.63,1.44c.8,0,.93-1,1.74-1,.32.59-.26,1.13-1,1.68a6.58,6.58,0,0,0-2.15,2c.47.06,1-.54,1.4-.93s.68-.63.74.21c0-1.1.58-1.41,1.28-1.79a2.88,2.88,0,0,0,1.8-1.94l.42.7a3.84,3.84,0,0,1,.8-1.35q0,.72-.07,1.46a3,3,0,0,1,1.71-1.57,3.45,3.45,0,0,0,1.81-1.44c-2.21,2.37-1.2-.13-2.55.4,1-1.73,1.66-1.79,2.54-1.87a3.11,3.11,0,0,0,1.41-.37,4.32,4.32,0,0,0,1.63-1.83,2.54,2.54,0,0,1-.92.92c-.38.2-.68.19-.55-.29a9.07,9.07,0,0,1,2.15-1.64c.72-1.37.43-1.4.07-1.2s-.91.49-.81-.17c1.34-.44.35-1.49.54-2.78l.76.31c.89-1.52.51-1.91.19-2.19s-.68-.53,0-1.91c.29.5.53,1,.79,1.55,0-.56.11-1.11.1-1.68l.85.53a9,9,0,0,1-.14-2.2c.05-.6.22-1.19.34-2.12a.72.72,0,0,1-1-.15,2.86,2.86,0,0,1-.67-1.57c.36-1.1.86.51.46-1.68.58.39,1.29.91.64,2,.28.08.57.47.84.57a4.4,4.4,0,0,0,0-2.14,12.22,12.22,0,0,0-.52-1.76,2.52,2.52,0,0,1,0,.93q-.48-.76-1-1.48l-.49-.7c-.18-.22-.37-.43-.56-.64.1-.57.48-.3.86,0-.33-.59-.86-.86-1.29-1.7.7-.05,1.3-.42,2.15.8l-1-1.35c-.33-.44-.72-.81-1.07-1.21.16-.31-.12-1.82.29-1.59a6.08,6.08,0,0,0-2.14-2.26,8.13,8.13,0,0,1-2.52-2.28,1.49,1.49,0,0,1-.83-.29c-.35-.37-.66-.77-1-1.16a12.83,12.83,0,0,0-1-1.1,7.48,7.48,0,0,0-1.22-1,5.79,5.79,0,0,0-1.63-.59c-.16-.58-.33-1.17-.51-1.76-.9-.34-.68.21-.62.7s0,.91-1.47.39c-2-.67-.23-1.29-.75-1.95-1.3.09-3.38.43-4.91-1.1A7.81,7.81,0,0,1,137.35,156.11Z"/><g id="_Group_2" data-name="&lt;Group&gt;"><g id="_Group_3" data-name="&lt;Group&gt;"><g id="_Group_4" data-name="&lt;Group&gt;"><path id="_Path_2" data-name="&lt;Path&gt;" class="cls-2" d="M350.21,1c.34-1-.55-.84-.65-1C349.28,1.77,350.43,1,350.21,1Z"/><polygon id="_Path_3" data-name="&lt;Path&gt;" class="cls-3" points="347.47 18.69 347.24 18.28 347.29 21.07 347.47 18.69"/><path id="_Path_4" data-name="&lt;Path&gt;" class="cls-4" d="M342.83,34.65c1.79-.93,1.48-5.88,2.77-8.53l.43-.36-.68-1.69C344.51,27.59,344,32.4,342.83,34.65Z"/><path id="_Path_5" data-name="&lt;Path&gt;" class="cls-5" d="M337.44,41.76c.65-.27-.14,2,.76-1.87a3,3,0,0,1-.24.29C337.87,40.53,337.72,41,337.44,41.76Z"/><path id="_Path_6" data-name="&lt;Path&gt;" class="cls-6" d="M338,40.19c.48-1.66-.75.88,0,0Z"/><path id="_Path_7" data-name="&lt;Path&gt;" class="cls-7" d="M335.86,47.93l.24-2.39c-.43.31-1.1,2.19-1.08,1.37C334.54,49.24,335,48.94,335.86,47.93Z"/><path id="_Path_8" data-name="&lt;Path&gt;" class="cls-8" d="M336.08,50.46l.2-1.22C336.09,49.37,335.95,49.65,336.08,50.46Z"/><path id="_Path_9" data-name="&lt;Path&gt;" class="cls-9" d="M336.66,46.66c-.12.86-.23,1.73-.38,2.59.31-.21.73,0,.22-1.16C336.81,48.47,336.6,47.81,336.66,46.66Z"/><path id="_Path_10" data-name="&lt;Path&gt;" class="cls-10" d="M337.27,45.4c.66-1.08,1.33-2.58,1.08-.17C339.49,41,338.4,41.15,337.27,45.4Z"/><path id="_Path_11" data-name="&lt;Path&gt;" class="cls-11" d="M343.9,36.05l.9-1.49c0-.54,0-1.08,0-1.63C344.82,33.75,343.46,36,343.9,36.05Z"/><path id="_Path_12" data-name="&lt;Path&gt;" class="cls-12" d="M330.69,60.94c.22.29.94-.3,1.33-.27l.24-1.77C331.8,59.62,331.11,61.06,330.69,60.94Z"/><path id="_Path_13" data-name="&lt;Path&gt;" class="cls-13" d="M332,60.67l-.36,2.65C332.43,61.22,332.35,60.71,332,60.67Z"/><path id="_Path_14" data-name="&lt;Path&gt;" class="cls-14" d="M337.34,51.59c.13-1.49.26-3,.34-4.46-.15,1.75-.38,3.48-.58,5.22Z"/><polygon id="_Path_15" data-name="&lt;Path&gt;" class="cls-15" points="327.45 69.89 327.34 68.18 327.38 71.13 327.45 69.89"/><path id="_Path_16" data-name="&lt;Path&gt;" class="cls-16" d="M325.4,75.9c-.13-1.32-1.31.78-1.24-.47a22.41,22.41,0,0,0-.68,4.81A11.72,11.72,0,0,1,325.4,75.9Z"/><path id="_Path_17" data-name="&lt;Path&gt;" class="cls-17" d="M323.23,82.69a22.66,22.66,0,0,0,.25-2.45A11.81,11.81,0,0,0,323.23,82.69Z"/><path id="_Path_18" data-name="&lt;Path&gt;" class="cls-18" d="M330.09,67.27c-.22.08-.76.18-1.41,1.38l1.06-.46Z"/><path id="_Path_19" data-name="&lt;Path&gt;" class="cls-19" d="M329.78,68.17l0,0-.77,2Z"/><path id="_Path_20" data-name="&lt;Path&gt;" class="cls-20" d="M330.18,67l-.09.23C330.19,67.23,330.24,67.19,330.18,67Z"/><path id="_Path_21" data-name="&lt;Path&gt;" class="cls-21" d="M334.54,57.5c-.06,1.64-.62,4.85,1,2.36C335.35,58.55,334.44,60,334.54,57.5Z"/><path id="_Path_22" data-name="&lt;Path&gt;" class="cls-22" d="M331.51,66.46c.36-.81.73-1.6,1.07-2.42-.21-.07-.65.22-.62-.6C331.83,64.45,331.66,65.45,331.51,66.46Z"/><polygon id="_Path_23" data-name="&lt;Path&gt;" class="cls-23" points="331.29 67.83 331.51 66.46 331.11 67.35 331.29 67.83"/><path id="_Path_24" data-name="&lt;Path&gt;" class="cls-24" d="M325.52,78.93a15.08,15.08,0,0,1-1,3.84,32.88,32.88,0,0,0,1.84-4.14C326.23,78.28,326.05,77.38,325.52,78.93Z"/><path id="_Path_25" data-name="&lt;Path&gt;" class="cls-25" d="M327.65,73.75l0,.27C327.72,73.91,327.78,73.81,327.65,73.75Z"/><polygon id="_Path_26" data-name="&lt;Path&gt;" class="cls-26" points="319.5 95.78 319.71 95.67 319.61 95.53 319.5 95.78"/><path id="_Path_27" data-name="&lt;Path&gt;" class="cls-27" d="M326.6,78.49a4.83,4.83,0,0,0,.59-2.51c-.22.86-.48,1.74-.81,2.66C326.45,78.79,326.51,78.86,326.6,78.49Z"/><path id="_Path_28" data-name="&lt;Path&gt;" class="cls-28" d="M322.16,86.55a17.66,17.66,0,0,0,1.1-1.55C322.83,85.38,322.05,86.22,322.16,86.55Z"/><path id="_Path_29" data-name="&lt;Path&gt;" class="cls-29" d="M327.27,74.25c0-.06,0-.12,0-.18C327,74.31,327.11,74.32,327.27,74.25Z"/><path id="_Path_30" data-name="&lt;Path&gt;" class="cls-30" d="M327.27,74.25a10.79,10.79,0,0,0-.08,1.72,17.78,17.78,0,0,0,.41-2A1.2,1.2,0,0,1,327.27,74.25Z"/><path id="_Path_31" data-name="&lt;Path&gt;" class="cls-31" d="M322.33,103.28c-.57-.72,0-4,1.66-5.88.45-2.8-2.28-2.85-4.28-1.73.25.3.51.5-.1,3.23.71-.55,3-4.77,2.76-2.24-1,3.51-1.31,2.47-2.28,3.77,1.34-.69-.52,5.06.93,5.33l.76-3.19C322,102.67,321.84,103.94,322.33,103.28Z"/><path id="_Path_32" data-name="&lt;Path&gt;" class="cls-32" d="M321.58,91.06l.31-1.07a11.1,11.1,0,0,1-2.22,2.8c-.33,1.92-.23,2.45-.06,2.74l2-4.89Z"/><path id="_Path_33" data-name="&lt;Path&gt;" class="cls-33" d="M323.64,85.46c.41,1.31-.23,4,1.11,3.05,1.1-3,.21-2.53.59-4.52-1.67,4.92.13-1.66-1.61,1.5.24-1,.53-1.9.81-2.71-.42.8-.85,1.55-1.28,2.23l.09-.08v0h0c.17-.14.25-.17.11,0a.49.49,0,0,1,0,.11,1.19,1.19,0,0,1,.19.41c-.68,1.27-.27.08-.19-.41a.79.79,0,0,0-.08-.14h0L321.89,90A34.81,34.81,0,0,0,323.64,85.46Z"/><path id="_Path_34" data-name="&lt;Path&gt;" class="cls-34" d="M336.21,63.45c-.12.12-.17.08-.23.06C336,63.88,336,64,336.21,63.45Z"/><path id="_Path_35" data-name="&lt;Path&gt;" class="cls-35" d="M335.07,65.22a3.8,3.8,0,0,1,.3-2c.57-.88.35.22.62.31,0-.83.31-2.79-.81-.79l0,.41c-.92,1.86-2.74,3.81-2.73,3.4A4.9,4.9,0,0,0,335.07,65.22Z"/><path id="_Path_36" data-name="&lt;Path&gt;" class="cls-36" d="M329.52,75.73,328.4,80l1.38-1.64-.41-.15C330.35,76,329.71,76.21,329.52,75.73Z"/><polygon id="_Path_37" data-name="&lt;Path&gt;" class="cls-37" points="318.96 95.95 318.44 94.84 318.55 97.94 318.96 95.95"/><polygon id="_Path_38" data-name="&lt;Path&gt;" class="cls-38" points="316.97 101.12 316.41 100.41 316.24 102.07 316.97 101.12"/><path id="_Path_39" data-name="&lt;Path&gt;" class="cls-39" d="M176.69,370.12l-.62,1.13A8.12,8.12,0,0,0,176.69,370.12Z"/><path id="_Path_40" data-name="&lt;Path&gt;" class="cls-40" d="M181.84,364.12l0-.66C181.66,364,181.63,364.36,181.84,364.12Z"/><path id="_Path_41" data-name="&lt;Path&gt;" class="cls-41" d="M259.5,221c-1.33.84-3,1.47-2.33,2.13l.84.35A7.23,7.23,0,0,1,259.5,221Z"/><path id="_Path_42" data-name="&lt;Path&gt;" class="cls-42" d="M218.62,303.08l.42-.14.12-1.88Z"/><path id="_Path_43" data-name="&lt;Path&gt;" class="cls-43" d="M220.1,308l-1.54,1.31A7.46,7.46,0,0,0,220.1,308Z"/><path id="_Path_44" data-name="&lt;Path&gt;" class="cls-44" d="M148.24,402.06l-.61,2.14C149,402.86,148.26,402.8,148.24,402.06Z"/><path id="_Path_45" data-name="&lt;Path&gt;" class="cls-45" d="M294.61,152.65a19.64,19.64,0,0,0-2,3.05C293.76,154.45,294.93,153.68,294.61,152.65Z"/><path id="_Path_46" data-name="&lt;Path&gt;" class="cls-46" d="M174.8,355.63c-.35.7-.45,1.14-.36,1.38C174.81,356.31,175,355.8,174.8,355.63Z"/><path id="_Path_47" data-name="&lt;Path&gt;" class="cls-47" d="M290.65,159.7c.18-.17.33-.37.5-.56a21.61,21.61,0,0,1,1.43-3.43A6.75,6.75,0,0,0,290.65,159.7Z"/><path id="_Path_48" data-name="&lt;Path&gt;" class="cls-48" d="M38.34,466.52c-.07,0-.17,0-.23-.11C38.06,466.62,38.17,466.6,38.34,466.52Z"/><path id="_Path_49" data-name="&lt;Path&gt;" class="cls-49" d="M8.86,456.89a6.28,6.28,0,0,1,1.26-.19A1.91,1.91,0,0,0,8.86,456.89Z"/><path id="_Path_50" data-name="&lt;Path&gt;" class="cls-50" d="M308.11,121.24c.41-1.11,0-.24,0,0Z"/><path id="_Path_51" data-name="&lt;Path&gt;" class="cls-51" d="M313,118.49a1,1,0,0,0,.15.73A1.32,1.32,0,0,1,313,118.49Z"/><path id="_Path_52" data-name="&lt;Path&gt;" class="cls-52" d="M289.53,174.6l0,.09C289.76,174.52,289.71,174.55,289.53,174.6Z"/><path id="_Path_53" data-name="&lt;Path&gt;" class="cls-53" d="M309.1,119.92a10.06,10.06,0,0,0-.79,1.18A10.32,10.32,0,0,0,309.1,119.92Z"/><path id="_Path_54" data-name="&lt;Path&gt;" class="cls-54" d="M308.69,119.84l.47-.87C309.1,118.72,309,118.78,308.69,119.84Z"/><path id="_Path_55" data-name="&lt;Path&gt;" class="cls-55" d="M307.5,122.76a14.11,14.11,0,0,1,.81-1.66c-.14.17-.21.22-.21.14Z"/><path id="_Path_56" data-name="&lt;Path&gt;" class="cls-56" d="M97.32,436.64a.76.76,0,0,1-.16,0C96.47,437.64,96.78,437.36,97.32,436.64Z"/><path id="_Path_57" data-name="&lt;Path&gt;" class="cls-57" d="M251.25,255.48c0-.06,0-.1,0-.15l-.1.12Z"/><path id="_Path_58" data-name="&lt;Path&gt;" class="cls-58" d="M249.68,259.67c.15-2.57.72-3.3,1.51-4.23l-2.29-1.27Z"/><path id="_Compound_Path_" data-name="&lt;Compound Path&gt;" class="cls-59" d="M164.34,384.5l2-.77c-1.61,4-3.29,5-1.27,4.81-.75-4.06,6.66-7.58,5.81-11.66l1.33-.53c-.33.34-.32.61-.64.95,2.68-.79.83-4.53,3.74-7.25,1-.85,1.89-1.13,1.36.08l1.87-3.42c.65-.67.7.13.05.8,1.06-1.4,2.14-2.73,3.18-4.18v.13c.27-1.14,1-3.31,1.39-4.31,1-.53-.28.89.08,1.06l1.47-3.1c1,0-.12,2.73-1.39,4.17,2.88,1.36,1.16-2.75,5.47-5.32l-1.52,2.59c1.8.56,2.86-1.83,5.23-3.09-.71,0-5,1.86-3.35-1.47a6.36,6.36,0,0,0,2.18-3.24c.47,1.18,1.39-.38,2.6-2.16l.54,1.69c1.17-2.29.74-2.94,1.24-4.72,1.56-1.87,2.36-1.13,3.14-.61,2.49-3.09-2.45.38.24-3.84,2.23-2.16,3.33-4.78,5.25-9,1.59-1.46.18,1.26.87,1l.65-2.95c.31-.4.38.1.42.35.79-1.94-.61-1.6.77-4.33-.35-2.21,4.36-2.47,5.39-7.21.68-.32.22,1.23.64,1.56a56.85,56.85,0,0,0,3.15-9.23l2.3-1.94c-1.89,1.05-.85-2.88.07-6.23a12.2,12.2,0,0,0-1.76.64l1.93-4.48c.41-.23.43.62.37,1.82.1-.37.18-.73.24-1,1.11-.84,1.12.65.95,2.39l-1.31.51c-.11,1.78-.16,3.57.4,4.19a7.09,7.09,0,0,1,.57-1.61c0,.47,0,.83.13.86s.24-.69.43-1.66l1.38.67-.21-.82,3.62-4c1.33-5.12,1.93-10.45,5-16.78-.19,2.51.88,2.07,1.6,3.43-1.75.21-2.31,5-4.26,7.72,1-1.4,1.17-.45,1.06.17l2.44-6.56c.56,1.17,1.15-.34,2.23-1.31-1.87-1,1.52-5.35,2.4-8.16.5.55.64,1.78-1,4.27,2.68-1.39.73-6.2,3.22-7.77-.37.67-.64.91-.57,1.52.51-2.12,3-5.37,2.82-3.91l-.37.67c2.66-4.1,7.58-13.26,6.84-15.6a16.62,16.62,0,0,1,1.08,3.2l.65-13.43c.57,2.12,4.33,2.86,2.83,7.32a11.89,11.89,0,0,0,2.5-4.62c-.54.51-2.38-.28-1.92-1.38,2.56-1.09,1.6-1,4.35-3-.8.77-1.65-2.64-.67-4.27.08.6,1.57,2,1.39,2.9l.85-6.4a1.52,1.52,0,0,0,2.1,1.68c-.54,0,2-3.62,2.52-5l-1.34,1.3c2.85-4.48.47-7.77,3.13-12.42,0,1,1.15,4.13,2.65,2-.17-2.21-1.05-10.13.57-15.2l.88-.2,1.21-3.95a123.85,123.85,0,0,1-1.15,17.17c1.33-1.32.8.23,2.22-2.54.93-.39-.16,2.37-.57,3.19l3.66-6c-1.06-1,1.66-6.13.77-6.92l-2.71,8.21c-1.06-1-.48-7.54,2.06-11.81,1-.65,1.19,3.05,1.54,3.38,0-1,1.66-5.09,2.1-5.21l-.52,2.57c1.69-2,.91-5.76,3.38-7.63.6-1,2.83-1.59,2.37-2.49-2,.35-5.42-3.6-5.64-5.77.26-.27,3.85-4.15,5-4.68,1.73-.67.68,5.14,2.16,4.58a5.47,5.47,0,0,1,.05-2.28c.78-.84.57,1.47,1.67-1.11-.76-1.61,2.56-4.84-.24-2.16.91-2.71,1.46-2.28,2.82-5.11-1.07.12-.88-5.1,0-7.79.18.44.77.29,1,.21,2.47-4.78,4.19-6.9,6.43-11.47.45-.15,1.81-2,1.78-.6a10.59,10.59,0,0,1,.75-3.3c2.17-1.81-1.37,3.34.67,2.39-.5-.83.93-4.61,1.52-7-1.2-.37-2.36,4.53-3,7-1.23-1.37-.87-6.37.8-11.79,1.47-4.15,1.59-.79,1.72-1.64,3.6-7,.62-8.44,4.25-13.5,1.89-1.57,1.68,1.52,2.51,1.59-1.11,3.48-2.7,4.34-3.63,6.51l1.57-2.24a11.34,11.34,0,0,1-1.69,4.51c1.65-1.25,5.72-12.17,8.9-17.2.16-1.28.62-3.31-.07-2.8l-.66,1.92c-1.38,1,.53-4.27-.77-2.29.57-2.86,1-6.24,2.81-9.28l1.24.23c-.31-.18-1.53,1.7-1.64,2.92.17-1.8,3.56-4,2.94-6.73l-1.68,1.79c.57-2.84.72-6.77,2.28-9.52-1.53.56-.18.79-2.18,2,2.18-.64-3.24,7.65-.54,6-2.23,1-2.17,3.29-4.49,5.12.35.2,1-.45-.19,1.91a4.39,4.39,0,0,1,0,.81l-.1.15.1-.1c0,.15,0,.17,0,0a2.25,2.25,0,0,1,1-.83c.19,1.91-1.55,5.89-1.76,7.6-.8,1.34-.09-1-.77-.47l-.34,2.53c-.78-.47-2.9,2.79-1.75-1.07l-1.43,3.08a15.28,15.28,0,0,0-2.9,5.65c-.8,1.31-.91,4.48-.87,2.65-.58,1.78-1.22,3.51-1.82,5.27l-.19-.13c-2.33,4.63-3.45,11.07-7.28,15.08a27.61,27.61,0,0,1-2.67,6.08l-.81-.14c-.78,2.27-3.52,5.42-3.39,7-2.58.35-5.19,9.35-7.25,12.53l.64,1a65.06,65.06,0,0,0-3.54,8.28l.72.63c-.82,3.26-3.87,6.07-6,10.18a3.21,3.21,0,0,1,1-2.07c-3.95,2.95-4.37,11.6-7.75,14.55a5.12,5.12,0,0,1-1.43,2.62,1.28,1.28,0,0,0,.11-.31c-.07.1-.16.26-.25.43-.36.33-.75.66-1.13,1.05a4.55,4.55,0,0,0,1-.81,32.83,32.83,0,0,0-1.57,3.68l-.93-.39-.14.31c-.9.88-.23,1.41.61,1.45a14.26,14.26,0,0,0-.5,2.2c-1.57-.49-1.43,3.75-3.27,3.5.08,1.61-3,6.79-2.26,9.09-.17-.17-.44.09-.08-.59a10.24,10.24,0,0,0-2.14,4.08l-1.13-.61-.59,4.6c-1.5,1.09-2.21,1.42-1.82-1.31-1.48,5.77-1.62,4.05-2.76,9.16l-.41-1c-.72,1.35-1.23,4.5-2.1,4.64-2.62,1.46-8.41,14.3-13.65,20.2,2.3,1-2.67,2.33-1.73,4.49-.6-.15-1.4.54-1-1.14-1.89,4.31-3.89,4.64-4.52,8.81-.59-.17,0-1.65-.43-1.62-.11.42-.42,1.68-.86,1.71s0-1,.26-1.87c-2.23,3.84-1.46,6-.68,8-1.63,1.09-2.14,2.15-2.39,4.64-.72.09-1.73.58-.39-1.92-.86,1.23-5.44,7-4.8,8.57-.44,0-1.21,1.68-1.34,2.19-1.9,2.78-2.14,2.88-3.91,5.8l.63-.53c.13,2.86-1.34,2.72-2.74,5.13l0-.25c-4,3.78-1.2,2.83-5.29,6.27l.69.86c.77,2.92-3.69,2.91-5.29,6.63l1-.35c-.74,2.42-4.5.83-5.72,2-.33.1.24-.87.51-1.48-3.48,2.39.26,2.08-1.78,5.3-.73-.32-.32-2.8-1.84-1.08-1,.23-3.24,8.24-5.85,9.17.68.1,1.36.2.51,2a13.3,13.3,0,0,1-3.2,2.76,5.83,5.83,0,0,0-2.67,3.83c-.26.05-.4,0-.46-.2-1,2-3.7,5.62-4.09,7.7-1.25-1.6-2.95,1.31-4.6,3.8s-3.14,5-3.68,2.85l-3.8,4.38v-.55a13.23,13.23,0,0,0-3.81,6.22c-.65.28-.32-.55-.32-.82-3.88,2.74-4.18,3.26-6.81,8.51l-.62-1.12c-.34.8-1.77,1.63-3.55,2.7a16.45,16.45,0,0,0-5.57,5,2.19,2.19,0,0,1,.29-1c-1.91,2.68-4.53,3.95-6.76,5.14s-4.07,2.52-4.45,5.9l-2.57,3.6c3.63-2.47-.22,2.84,1.38,2.56-1.38,1.48-3.87,1.29-2.17-.4l.31.06c.27-3.38-4.57,2.56-4.72.39a121.89,121.89,0,0,1-10.51,6.92c-3.48,1.84-6.9,3.6-10.22,5.7l.91,1.86-2.33,1.38c-.64-.17-.92-1.32.74-2.3-.94-.72-2.72,2.81-2.74,3.36-3.3.92,1.13-3.5.13-3l-1.34,1,.32.1c-1,1.6-1.1,2.69-3.11,3.73-1.28.25-.7-1.1-1.21-.9,0-.17-.17-.15-.76.37l-2.93,1.49,1.23,1.22c-1.27,1.69-2.77,1.5-1.35,2.86-2.08-2.1-11,4.39-12.26,4-1.83,2.39-3.65,3-5.88,3.83.55.16.86,2.2-1.08,2.76.79-4.8-3.51-.43-5-3,.66.77-.71,1.53-2,2.26s-2.46,1.48-1.42,2.62c-1.6.21,0-1.66-1.21-2.3-3.89,3-8.36,2.06-13.05,3.82-.12.62.61,1.32-.46,2.5l-2.26-2.31c-.94.56-1.12,3.72-2.65,2.11.2.44.5,1.1-.14,1.47-4.49-.1-9.18,1.18-13.91,2.55-4.69,1-9.39,1.63-13.57-.7,1.06,1.11.23,1.28-.72,1.37.57.25-.23,1.51-.22,2.33L6.41,457c-1,2.34-4.11.4-4.85,2.62l1.27-.47c-2,2.69,1.37,5.63.63,9,2.27-3.09,4.22,4.15,7.86-.4.58.59-.72,1.15-.46,1.87,1-1.53,1.94-2,3.59-1.55l-.24.38c4.92-1.08,6.81.32,12.27,0l-.24-1.55c1.16,0,1.36.43,1.88.72,1.61-2.76-3.32.56-1.8-2.43,1.24,3,8.33-1.63,9.09,1.77,1.84-.5-.38-1.73,1.46-2.23l.41.88.57-1.44a1.61,1.61,0,0,1,1.68,1.82c-.29,0-.85.48-1.17.64,1.48.75,4.46-1.67,5-1.43L41.58,465c5.08-2.19,11.21-3.27,16.17-7l-.34-.62c3.76-2.69,3-.36,7.06-2.7l-.15.24a6.86,6.86,0,0,1,3-2.34c-1,1.32,1.92.87.55,2.42,4.07-3.24,2-2,4.7-6l.61.93c.91-1.57,1-2.2,3-3.54-1.66,1.9,1.31,1.22-.56,3.56,4.33.52,6.33-5.91,8.37-3,1.89-4.37-3.75,0-2.66-1.29-.94-.65,1.57-3.35,2.91-3.68,1.36-.69,2.43,3,5.88.93-.34.18-.36.45-.7.63,1.33.11,2.48-2.61,4.12-2.14.79-2.53,2.06-1.07,2.19-3.79L92.66,440c1.76-1.77,3.28-5.54,6.27-6.06a11.92,11.92,0,0,1-1.61,2.68c.9.19,1.62-1.58,2.55-1.38-.1,2.74-3.78,3.07-5.61,6.05,1,.55,3.54-4,2.72-.63,1.19-4.41,3.43-1.77,5.58-6l-.05,1.62a8.31,8.31,0,0,1,1.75-2.1L103.18,437c1.77-2.91,3.76-.92,5.51-3-3.8,2.53-1-1.26-2.69-1.32,4.49-5.06,3,2.23,8.18-2.3-.69.73-2.74,1-1.7-.46,1-.42,2.39-.8,3.08-.47,3.43-2.84-.69-1.14.69-3.13,1.36,1,1.62-2,3.05-3.65l.18,1.49c4-1.93.68-3.81,4.31-5.46L122.57,422l1.76-2-.16,2c1.83-2.87,2.49-3,4.51-4.16-.6-.67-.12-2.88,1.59-4.32,1.3-.08-.45,1.93,2-.26-.41,1.36-.85,3-2.11,2.52,0,.57-.41,1.36-.46,1.93,1.42,0,3.23-2.37,4.12-3.1a2.07,2.07,0,0,1-1,.44c1.09-1.6,2.15-3.32,3.21-5,.64.05.27.88-.09,1.7a35.73,35.73,0,0,1,2.09-3c-.07,1.41.2,2.57-1.2,4.45l3.14-4.31c.31.31,2-.15,1.61.67,2-1.05,4.18-6.21,6.77-7.78a4.38,4.38,0,0,1,.78-1.48c2.33-2,4.67-2.6,7-6.8l2,.48c2-2.56-2.65-.42.67-4.73,2.29-3.26,1.32.71,2.32.33,1-2.32,2.58-6.59,5.24-7.43A17.74,17.74,0,0,1,164.34,384.5ZM189.12,354c-.38.86-1,2.86-1.65,2.59C187.5,354.51,188.16,354.65,189.12,354ZM223,299.86a2.93,2.93,0,0,1-1.48,2A5.91,5.91,0,0,1,223,299.86Zm80.6-166.41a.8.8,0,0,0,0,.12C302.5,135,302.89,134.51,303.56,133.45Zm1.93-3.26c.06-.46-.05-.54-.23-.49a4.46,4.46,0,0,1-.74,2.11C304.83,131.75,305.17,131.42,305.49,130.19ZM89.28,430.48l.48.15C88.74,431.68,89,431.1,89.28,430.48Z"/><path id="_Path_59" data-name="&lt;Path&gt;" class="cls-60" d="M219.94,307.41a.61.61,0,0,1-.49-.28C219.37,307.58,219.48,307.79,219.94,307.41Z"/><path id="_Path_60" data-name="&lt;Path&gt;" class="cls-61" d="M148.35,401.67l-.08.06a1.32,1.32,0,0,0,0,.33Z"/><path id="_Path_61" data-name="&lt;Path&gt;" class="cls-62" d="M285.23,191.89a2.67,2.67,0,0,1-1.06.94C284.31,193.08,284.62,192.94,285.23,191.89Z"/><path id="_Path_62" data-name="&lt;Path&gt;" class="cls-63" d="M312.51,109.88l-.8,2.49a5.2,5.2,0,0,1,1.14-1.86C312.66,110.4,312.21,110.61,312.51,109.88Z"/><path id="_Path_63" data-name="&lt;Path&gt;" class="cls-64" d="M325.61,93.26c0-.43.28-.76.32-1.18l-.41-.18C325,93.41,324.85,94.69,325.61,93.26Z"/><path id="_Path_64" data-name="&lt;Path&gt;" class="cls-65" d="M315.94,109.92c.72.37,1.11-1.31,1.67-3.07a2.63,2.63,0,0,1-.12.29C316.78,105.9,316.36,107.91,315.94,109.92Z"/><path id="_Path_65" data-name="&lt;Path&gt;" class="cls-66" d="M317.74,106.46a12.09,12.09,0,0,1,.61-1.55C318.07,104.41,318,105.47,317.74,106.46Z"/><path id="_Path_66" data-name="&lt;Path&gt;" class="cls-67" d="M307.11,125.24c.49-.62-.59-1.25-.15-1.44C306.55,122.19,305.68,129.82,307.11,125.24Z"/><polygon id="_Path_67" data-name="&lt;Path&gt;" class="cls-68" points="318.62 110.41 317.58 110.32 317.84 111.81 318.62 110.41"/><path id="_Path_68" data-name="&lt;Path&gt;" class="cls-69" d="M312.51,122.94l1.35-2.43c-.15-.08-.08-.49,0-.95C313.16,121.16,312.25,122.79,312.51,122.94Z"/><path id="_Path_69" data-name="&lt;Path&gt;" class="cls-70" d="M313.89,119.56a8.93,8.93,0,0,0,.78-2.23A20.14,20.14,0,0,0,313.89,119.56Z"/><polygon id="_Path_70" data-name="&lt;Path&gt;" class="cls-71" points="317.36 114.27 316.86 114.9 316 116.71 317.36 114.27"/><path id="_Path_71" data-name="&lt;Path&gt;" class="cls-72" d="M299.82,150.65l-1.09,3c.12.56.63,0,1-1.18C299.88,151.63,300.27,150.49,299.82,150.65Z"/><path id="_Path_72" data-name="&lt;Path&gt;" class="cls-73" d="M305.82,144.33c-.5.61-.69.49-1.14.66l.89,1.06Z"/><path id="_Path_73" data-name="&lt;Path&gt;" class="cls-74" d="M302.22,152.78c.13.55-1.18,4.89.44,1.25C302.53,153.47,303.64,150.42,302.22,152.78Z"/><polygon id="_Path_74" data-name="&lt;Path&gt;" class="cls-75" points="280.68 193.06 281.02 192.36 279.55 190.64 280.68 193.06"/><path id="_Path_75" data-name="&lt;Path&gt;" class="cls-76" d="M265.14,233.24c2-2.7-.44-1.94,1.52-4.22.08-1.2-1.59,1.86-1.46.71C264.51,232.11,263.77,232.84,265.14,233.24Z"/><path id="_Path_76" data-name="&lt;Path&gt;" class="cls-77" d="M265.2,229.72c.11-.38.22-.8.32-1.27A7.29,7.29,0,0,0,265.2,229.72Z"/><polygon id="_Path_77" data-name="&lt;Path&gt;" class="cls-78" points="4.15 455.28 2.9 454.63 3.59 455.76 4.15 455.28"/><path id="_Path_78" data-name="&lt;Path&gt;" class="cls-79" d="M1.11,458.06l0-2.24L0,457.92C.33,457.8,1,457.57,1.11,458.06Z"/><path id="_Path_79" data-name="&lt;Path&gt;" class="cls-80" d="M194,352.58l-.05-.52c-.36-.14-.68.22-1.33,1Z"/><polygon id="_Path_80" data-name="&lt;Path&gt;" class="cls-81" points="175.51 373.8 175.84 373.47 174.77 372.59 175.51 373.8"/><path id="_Path_81" data-name="&lt;Path&gt;" class="cls-82" d="M160.42,393.2c.66-.63,1.33-1.81,2-2.43C161.08,392.57,159.74,391.32,160.42,393.2Z"/></g><g id="_Group_5" data-name="&lt;Group&gt;"><path id="_Path_82" data-name="&lt;Path&gt;" class="cls-83" d="M639.43,363.84c.61.34.83-.94,1-1.12C639.26,362.59,639.34,364.16,639.43,363.84Z"/><polygon id="_Path_83" data-name="&lt;Path&gt;" class="cls-84" points="627.64 362.7 628.02 362.28 625.97 362.91 627.64 362.7"/><path id="_Path_84" data-name="&lt;Path&gt;" class="cls-85" d="M617.64,359c.12,2.38,3.76,1,5.24,2.42l.11.57,1.46-1.33C622.19,360.08,618.94,360.11,617.64,359Z"/><path id="_Path_85" data-name="&lt;Path&gt;" class="cls-86" d="M614.13,352.6c0,.91-1.43.25,1.13.71a1.79,1.79,0,0,1-.14-.28A6.27,6.27,0,0,1,614.13,352.6Z"/><path id="_Path_86" data-name="&lt;Path&gt;" class="cls-87" d="M615.12,353c1.07.34-.41-.92,0,0Z"/><path id="_Path_87" data-name="&lt;Path&gt;" class="cls-88" d="M610.11,351.63l1.66-.16c-.09-.58-1.27-1.16-.67-1.32C609.54,350,609.63,350.55,610.11,351.63Z"/><path id="_Path_88" data-name="&lt;Path&gt;" class="cls-89" d="M608.19,352.59l.84,0C609,352.33,608.83,352.19,608.19,352.59Z"/><path id="_Path_89" data-name="&lt;Path&gt;" class="cls-90" d="M610.8,352.54l-1.77,0c.06.4-.19,1.07.79,0C609.44,353.17,610,352.71,610.8,352.54Z"/><path id="_Path_90" data-name="&lt;Path&gt;" class="cls-91" d="M611.53,353.18c.59.74,1.47,1.41-.2,1.57C614.08,355.47,614.27,353.91,611.53,353.18Z"/><path id="_Path_91" data-name="&lt;Path&gt;" class="cls-92" d="M616.27,360.87l.8,1,1.18-.34C617.67,361.68,616.47,360.21,616.27,360.87Z"/><path id="_Path_92" data-name="&lt;Path&gt;" class="cls-93" d="M602,347.25c-.27.39,0,1.32-.17,1.91l1.22-.09C602.69,348.56,601.82,347.91,602,347.25Z"/><path id="_Path_93" data-name="&lt;Path&gt;" class="cls-94" d="M601.86,349.15l-1.83.14C601.34,349.91,601.74,349.66,601.86,349.15Z"/><polygon id="_Path_94" data-name="&lt;Path&gt;" class="cls-95" points="607 354.73 610.15 354.16 606.51 354.56 607 354.73"/><polygon id="_Path_95" data-name="&lt;Path&gt;" class="cls-96" points="596.29 344.88 597.58 344.24 595.4 345.11 596.29 344.88"/><path id="_Path_96" data-name="&lt;Path&gt;" class="cls-97" d="M592.41,343.49c1-.56-.25-1.73.64-2a6.73,6.73,0,0,0-3.37.37A3.3,3.3,0,0,1,592.41,343.49Z"/><path id="_Path_97" data-name="&lt;Path&gt;" class="cls-98" d="M587.93,342.27a8.59,8.59,0,0,0,1.75-.37A4.46,4.46,0,0,0,587.93,342.27Z"/><path id="_Path_98" data-name="&lt;Path&gt;" class="cls-99" d="M597.54,348a2,2,0,0,0-.65-1.7l.07,1.44Z"/><path id="_Path_99" data-name="&lt;Path&gt;" class="cls-100" d="M597,347.84v0l-1.25-.59Z"/><path id="_Path_100" data-name="&lt;Path&gt;" class="cls-101" d="M597.68,348.12l-.15-.07C597.54,348.19,597.56,348.24,597.68,348.12Z"/><path id="_Path_101" data-name="&lt;Path&gt;" class="cls-102" d="M603.48,352.08c-1.18.32-3.36.32-2,2C602.48,353.56,601.7,352.57,603.48,352.08Z"/><path id="_Path_102" data-name="&lt;Path&gt;" class="cls-103" d="M597.77,349.92l1.49.91c.11-.33,0-.91.6-1.07Z"/><polygon id="_Path_103" data-name="&lt;Path&gt;" class="cls-104" points="596.81 349.98 597.77 349.92 597.22 349.57 596.81 349.98"/><path id="_Path_104" data-name="&lt;Path&gt;" class="cls-105" d="M590.16,344.5a4.59,4.59,0,0,1-2.59-.29,11.7,11.7,0,0,0,2.6,1.49C590.47,345.38,591.16,344.86,590.16,344.5Z"/><path id="_Path_105" data-name="&lt;Path&gt;" class="cls-106" d="M593.42,346.23h-.18C593.28,346.37,593.34,346.44,593.42,346.23Z"/><polygon id="_Path_106" data-name="&lt;Path&gt;" class="cls-107" points="579.21 340.66 579.24 340.94 579.37 340.74 579.21 340.66"/><path id="_Path_107" data-name="&lt;Path&gt;" class="cls-108" d="M590.23,346a1.47,1.47,0,0,0,1.69.18,8.37,8.37,0,0,1-1.74-.47C590,345.85,590,346,590.23,346Z"/><path id="_Path_108" data-name="&lt;Path&gt;" class="cls-109" d="M585.34,341.86a7.06,7.06,0,0,0,.89,1.15C586,342.49,585.6,341.6,585.34,341.86Z"/><path id="_Path_109" data-name="&lt;Path&gt;" class="cls-110" d="M593.15,345.81h.13C593.16,345.45,593.14,345.58,593.15,345.81Z"/><path id="_Path_110" data-name="&lt;Path&gt;" class="cls-111" d="M593.15,345.81a4.44,4.44,0,0,0-1.24.36,5.15,5.15,0,0,0,1.32.07A1.51,1.51,0,0,1,593.15,345.81Z"/><path id="_Path_111" data-name="&lt;Path&gt;" class="cls-112" d="M573.1,347.2a2.38,2.38,0,0,1,3.94.56c1.92-.17,2.59-4.23,2.2-6.83-.27.46-.48.91-2.35.88.27.84,2.84,2.9,1,3.33-2.36-.33-1.53-1.12-2.27-2.14.22,1.74-3.6.86-4.1,3.06l2.17.08C573.63,346.48,572.73,346.7,573.1,347.2Z"/><path id="_Path_112" data-name="&lt;Path&gt;" class="cls-113" d="M582.18,342.33l.71.14a5.81,5.81,0,0,1-1.54-2.45c-1.32.08-1.74.39-2,.73l3.11,1.52Z"/><path id="_Path_113" data-name="&lt;Path&gt;" class="cls-114" d="M585.8,343.7c-1.06,1-2.84.84-2.49,2.55,1.95.72,1.8-.45,3.18-.5-3.22-1,1.19-.31-.73-1.9a7.79,7.79,0,0,1,1.81.36,11,11,0,0,1-1.34-1.2l0,.1h0v0c.06.2.07.31,0,.17,0,0-.06,0-.08,0a1.86,1.86,0,0,1-.35.4c-.78-.61,0-.37.35-.4a1.61,1.61,0,0,0,.12-.16v0l-3.37-.64A9.24,9.24,0,0,0,585.8,343.7Z"/><path id="_Path_114" data-name="&lt;Path&gt;" class="cls-115" d="M598.69,356.09a.42.42,0,0,1,0-.32C598.45,355.84,598.33,355.91,598.69,356.09Z"/><path id="_Path_115" data-name="&lt;Path&gt;" class="cls-116" d="M597.72,354.85c.3-.08.7-.49,1.39-.08.48.62-.25.58-.39,1,.59-.15,1.94-.26.79-1.4l-.29.08c-1.08-.91-2-3.05-1.74-3.14A9,9,0,0,0,597.72,354.85Z"/><path id="_Path_116" data-name="&lt;Path&gt;" class="cls-117" d="M591.51,349.55l-2.85-.46.85,1.58.21-.66C591.08,350.86,591.11,350,591.51,349.55Z"/><polygon id="_Path_117" data-name="&lt;Path&gt;" class="cls-118" points="579.2 339.94 580.12 338.82 577.82 339.98 579.2 339.94"/><polygon id="_Path_118" data-name="&lt;Path&gt;" class="cls-119" points="575.81 338.67 576.45 337.63 575.26 337.91 575.81 338.67"/><path id="_Path_119" data-name="&lt;Path&gt;" class="cls-120" d="M395.15,242.83l-.86-.31A2.9,2.9,0,0,0,395.15,242.83Z"/><path id="_Path_120" data-name="&lt;Path&gt;" class="cls-121" d="M399.49,246.93l.53-.33C399.59,246.64,399.33,246.74,399.49,246.93Z"/><path id="_Path_121" data-name="&lt;Path&gt;" class="cls-122" d="M497,299.15c-.41-1.55-.59-3.69-1.21-2.47l-.41,1.3A2.47,2.47,0,0,1,497,299.15Z"/><path id="_Path_122" data-name="&lt;Path&gt;" class="cls-123" d="M441.89,272.45l0,.52,1.46-.53Z"/><path id="_Path_123" data-name="&lt;Path&gt;" class="cls-124" d="M437.73,276.27l-.71-1.63A5.2,5.2,0,0,0,437.73,276.27Z"/><path id="_Path_124" data-name="&lt;Path&gt;" class="cls-125" d="M371,220.75l-1.72.2C370.32,222,370.39,221.11,371,220.75Z"/><path id="_Path_125" data-name="&lt;Path&gt;" class="cls-126" d="M542.1,323.7a6.74,6.74,0,0,0-1.9-1.84C540.93,323.08,541.28,324.54,542.1,323.7Z"/><path id="_Path_126" data-name="&lt;Path&gt;" class="cls-127" d="M407,234.3c-.53-.16-.88-.11-1.09.12C406.47,234.59,406.86,234.6,407,234.3Z"/><path id="_Path_127" data-name="&lt;Path&gt;" class="cls-128" d="M537.55,320.56c.1.2.22.33.33.52a6.14,6.14,0,0,1,2.31.79A2.21,2.21,0,0,0,537.55,320.56Z"/><path id="_Path_128" data-name="&lt;Path&gt;" class="cls-129" d="M305.3,123.46a2.25,2.25,0,0,1,0-.3C305.15,123.21,305.2,123.32,305.3,123.46Z"/><path id="_Path_129" data-name="&lt;Path&gt;" class="cls-130" d="M305.53,87.63a7.52,7.52,0,0,1,.53,1.24A2.32,2.32,0,0,0,305.53,87.63Z"/><path id="_Path_130" data-name="&lt;Path&gt;" class="cls-131" d="M562.82,332.28c.73.23.18-.08,0,0Z"/><path id="_Path_131" data-name="&lt;Path&gt;" class="cls-132" d="M563.89,338.53a.93.93,0,0,0-.56.46A1.18,1.18,0,0,1,563.89,338.53Z"/><path id="_Path_132" data-name="&lt;Path&gt;" class="cls-133" d="M526.73,324.41l-.06,0C526.75,324.71,526.74,324.64,526.73,324.41Z"/><path id="_Path_133" data-name="&lt;Path&gt;" class="cls-134" d="M563.6,333.29a4,4,0,0,0-.72-.76A4.13,4.13,0,0,0,563.6,333.29Z"/><path id="_Path_134" data-name="&lt;Path&gt;" class="cls-135" d="M563.74,332.66l.55.39C564.47,332.89,564.46,332.73,563.74,332.66Z"/><path id="_Path_135" data-name="&lt;Path&gt;" class="cls-136" d="M561.82,331.91a4.22,4.22,0,0,1,1.07.63c-.1-.14-.12-.24-.06-.26Z"/><path id="_Path_136" data-name="&lt;Path&gt;" class="cls-137" d="M340.32,175.63a1.45,1.45,0,0,1,0-.2C339.41,175.11,339.68,175.34,340.32,175.63Z"/><path id="_Path_137" data-name="&lt;Path&gt;" class="cls-138" d="M472.28,300.35s.07,0,.11,0l-.07-.1Z"/><path id="_Path_138" data-name="&lt;Path&gt;" class="cls-139" d="M469.37,299.67c2-.73,2.4-.2,3,.58l1.42-3.68Z"/><path id="_Compound_Path_2" data-name="&lt;Compound Path&gt;" class="cls-140" d="M384.55,233.19l.51,2.19c-3.15-.29-3.88-2-3.81.49,3.3-2.69,5.78,5.05,9,2.32l.28,1.52c-.23-.29-.46-.16-.69-.44.33,3.16,3.53-.82,5.46,1.77.59,1,.74,1.95-.18,1.78l2.59,1c.48.55-.17.95-.65.4l3.05,2.34-.11.07a17.51,17.51,0,0,1,3.24.09c.29,1.09-.67,0-.86.54l2.27.69c-.13,1.37-2.15.95-3.12-.15-1.48,4.35,2,.45,3.54,5l-1.89-.92c-.68,2.57,1.11,3,1.81,5.54.12-.93-.86-5.7,1.61-5a2.52,2.52,0,0,0,2.33,1.51c-1,1.1.15,1.62,1.36,2.55l-1.43,1.39c1.64.65,2.22-.18,3.56-.21,1.25,1.33.5,2.72,0,4,2.07,2.08.08-3.1,3-1.19,1.38,2.1,3.26,2.57,6.3,3.5.87,1.58-1,.73-.93,1.54l2.21-.24c.26.26-.15.55-.36.7,1.39.34,1.38-1.43,3.28-.59,1.81-1.3,1.13,5,4.71,4.56.12.8-1,.75-1.36,1.45,3.74.81,3.07.86,6.67.85l1.06,2.44c-.44-2.21,2.44-2.22,4.88-2.19a18.91,18.91,0,0,0-.15-2.18c1,.35,2.08.67,3.13,1,.1.47-.58.82-1.5,1.17.27,0,.53,0,.75,0,.43,1.21-.74,1.78-2.07,2.18l-.14-1.6c-1.38.5-2.77,1.09-3.38,2.09a2.28,2.28,0,0,1,1.15.19c-.37.14-.65.29-.7.5s.49.07,1.22,0l-.81,2.13.69-.58,2.45,3.46c3.75-.05,7.77-1.13,12.07.76-1.92.65-1.8,2-3,3.46.18-2.31-3.43-1.39-5.13-3.11.88.9.1,1.46-.35,1.53l4.59,1c-1,1.2,0,1.45.57,2.59,1.17-2.95,3.87.14,5.87.35-.53.9-1.51,1.51-3.11.12.55,3.19,4.67-1.22,5.38,1.66-.44-.27-.58-.55-1.06-.24,1.54-.07,3.55,2.18,2.45,2.52l-.44-.27c2.59,2.28,8.77,5.72,10.68,3.87a23.15,23.15,0,0,1-2.67,2.67l10.16-4c-1.73,1.57-3,7.12-6.14,6.63a3.86,3.86,0,0,0,3.07,1.83c-.3-.56.65-3.42,1.41-3.19.38,3.17.48,1.86,1.5,5-.45-.84,2.32-3.29,3.38-2.51-.47.33-1.84,3-2.46,3l4.73-1.18c-1,.1-1.75,2.38-1.65,3.58.08-.75,2.4,1.54,3.34,1.71l-.76-1.4c2.89,2.39,5.79-2.2,8.86-.21-.77.38-3.32,3.17-1.93,4.48,1.7-1.07,7.85-5.32,11.34-4.88v1.17L506,308a60.63,60.63,0,0,1-12.69,4.78c.78,1.38-.3,1.21,1.56,2.18.14,1.18-1.75.65-2.32.39l3.91,3c.9-1.86,4.32.09,5.07-1.5-1.93-.22-3.8-.53-5.72-.79.92-1.88,5.71-3.43,8.53-1.5.34,1.12-2.49,2.84-2.78,3.46.76-.39,3.57.41,3.59,1l-1.85.25c1.29,1.59,4.16-.85,5.17,2,.63.5.73,3.44,1.48,2.45.05-2.66,3.55-9.07,5.2-10.19.16.27,2.47,3.94,2.7,5.34.23,2.21-3.95,2.92-3.76,4.81a3,3,0,0,1,1.7-.79c.5.8-1.18,1.36.56,2,1.31-1.68,3.18,1.86,1.64-1.14,1.87.3,1.46,1.24,3.35,2.13.08-1.48,3.92-3.16,5.77-2.87a2.51,2.51,0,0,0-.32,1.57c3.1,1.85,4.42,3.49,7.42,5,0,.58,1.21,1.85.16,2.34a3.33,3.33,0,0,1,2.31-.12c1,2.49-2.22-.78-1.87,1.82.69-1,3.21-.28,4.9-.3.47-1.87-2.9-1.84-4.6-1.83,1.22-2.29,4.82-3.54,8.52-3,2.81.63.31,2,.92,1.89,4.54,2.64,6.11-2.12,9.18,1.39.81,2.21-1.42,3-1.61,4.19-2.35-.41-2.69-2.43-4.11-3l1.36,1.51a3.38,3.38,0,0,1-3-.88c.64,1.92,7.88,4.09,11,7,.91-.2,2.3-.2,2.05-1l-1.27-.32c-.48-1.68,3-.66,1.82-1.88,2-.13,4.38-.67,6.25,1l-.41,1.88c.19-.52-1-1.66-1.82-1.42,1.28-.34,2.27,3.81,4.35,2l-1-1.87c2-.15,4.77-1.07,6.49.29-.1-2.06-.55,0-1-2.56,0,3-4.92-2.33-4.23,1.1-.32-2.91-2-2.07-2.9-4.83-.22.58.13,1.36-1.36.35a2.66,2.66,0,0,1-.6.33l-.09-.09.06.11c-.11.05-.13.07,0,0a2.15,2.15,0,0,1,.41,1.22c-1.44.92-4-.29-5.23,0-.84-.7.72-.46.49-1.29l-1.81.4c.49-1.3-1.52-3.25,1.1-2.91l-2-1a4.83,4.83,0,0,0-3.63-2.26c-.82-.72-3.12.22-1.79-.35l-3.58-.74.13-.32c-3.07-1.61-7.5-1.14-9.89-5.07a8,8,0,0,1-4.07-1.59l.23-1.22c-1.55-.29-3.41-3.11-4.59-2.31.15-3.55-6.09-4-8.14-5.67l-.87,1.3a18.91,18.91,0,0,0-5.59-1.93l-.58,1.25c-2.29,0-3.88-3.25-6.65-4.6.46-.35,1.07.14,1.39.68-1.6-4.39-7.91-1.91-9.61-5.48a1.72,1.72,0,0,1-1.73-1,.38.38,0,0,0,.22,0,1.77,1.77,0,0,0-.29-.18c-.19-.38-.37-.81-.6-1.2a3.55,3.55,0,0,0,.44,1.11,9.5,9.5,0,0,0-2.51-.82l.45-1.45-.21-.07c-.51-.93-1,.21-1.2,1.4a5,5,0,0,0-1.56.1c.66-2.4-2.57-.62-2.05-3.3-1.23.71-4.59-1.7-6.49.22.16-.3,0-.58.46-.33-.74-.8-1.48-1.6-2.71-1.48l.68-1.8-3.4.87c-.54-1.71-.64-2.58,1.35-3-4.1,0-2.77-.78-6.45-.51l.82-.93c-.89-.52-3.21-.06-3.15-1.23-.62-3.07-9.26-6.56-12.81-11.58-1.25,3.52-1.27-2.83-3.13-.76.24-.88-.13-1.73,1.09-1.77-2.94-1.08-2.8-3.68-5.93-3,.25-.87,1.29-.61,1.36-1.19-.31,0-1.23,0-1.16-.55s.8-.31,1.41-.33c-2.55-1.66-4.44.22-6.16,2-.53-1.82-1.27-2.13-3.17-1.56.08-1-.1-2.16,1.59-1.23-.78-.74-4.43-4.86-5.78-3.41.05-.59-1.09-1-1.46-1a27,27,0,0,0-3.88-3.09l.31.64c-2.3,1.27-1.89-.8-3.55-1.78l.2-.15c-2.25-4-2-.56-4-4.74l-.81,1.26c-2.44,2.13-1.72-3.79-4.44-4.47l.12,1.21c-1.79-.07.06-5.69-.69-6.85,0-.4.66,0,1.11.09-1.39-3.69-1.67,1.13-4-.26.35-1.09,2.3-1.55,1.1-2.85-.06-1.2-6.29-.86-6.67-4-.17.94-.34,1.89-1.68,1.49-1.6-1.08-1.59-5.62-4.65-5a.87.87,0,0,1,.2-.68c-1.53-.51-4.23-2.39-5.87-2,2.76-4.5-8.24-4.55-4.75-7.79L392,221.7l.44-.25a5,5,0,0,0-4.82-2.13c-.21-.69.45-.64.67-.77-2.14-3.62-2.56-3.77-6.76-4.72l.92-1.27c-1.38-.07-2.18-5.95-6.25-7.8a1.13,1.13,0,0,1,.83-.11c-2.21-1.12-3.21-3.81-4.29-5.95s-2.21-3.76-5-2.68l-3-1.46c2.15,3.26-2.32,1-2,2.84-1.25-1-1.19-4.08.25-2.81l0,.4c2.79-1.25-2.27-4.35-.59-5.46-4.79-5.94-8.08-12.68-12-18.56l-1.44,1.93-1.34-2.09c.07-.82,1-1.69,1.95-.2.55-1.46-2.64-1.81-3.09-1.59-1.24-3.32,3-.35,2.47-1.24l-1-1.07,0,.41c-1.46-.45-2.4,0-3.47-1.81-.35-1.37.82-1.33.6-1.81.14-.08.11-.27-.39-.71l-1.55-2.7-.86,2c-1.53-.69-1.54-2.5-2.5-.23.77-1.71-.6-4.28-2.14-6.63s-3.09-4.58-3-5.37c-2.16-1-3.14-2.66-4.23-4.76a1.27,1.27,0,0,1-2.49.08c4.06-1.33-.26-4.12,1.66-7-1.08,2.21-3.24-4.83-4.67-1.52-.52-1.65,1.36-.8,1.62-2.38-3.5-2.78-3.2-8.32-5.91-12.52-.54.16-.94,1.26-2.17.64l1.36-3.48c-.67-.77-3.37.49-2.35-1.91-.33.42-.82,1-1.25.51-.72-5-3.35-9.29-5.51-13.82s-4-9.24-3.16-14.69c-.59,1.6-1,.79-1.35-.16,0,.71-1.31.41-2,.77l.66-4.55c-2.24-.09-1.57-4.14-3.63-4l.77,1.14c-2.84-1-4.23,3.85-7.21,4.52,3.21,1.07-2.07,6.24,2.65,8.16-.34.88-1.13-.27-1.67.32,1.51.38,2.15,1.22,2.28,3.15l-.38-.09c2.27,4.78,1.76,7.36,3.33,13.13l1.21-.95a4,4,0,0,1-.1,2.34c2.7.49-1.34-3.32,1.53-3-2.14,2.66,3.61,8.19.89,10.57.79,1.8,1.36-1.2,2.14.59l-.65.85,1.31,0a2.3,2.3,0,0,1-1.11,2.65c-.05-.32-.6-.71-.81-1-.26,1.95,2.46,4.08,2.39,4.74l-.32-1.93c3.18,4.44,5,10.87,9.28,14.52l.44-.66c3.07,2.86.84,3.12,3.48,6.64l-.22-.06a5.11,5.11,0,0,1,2.49,2.31c-1.29-.55-.34,2.53-1.89,1.73,3.46,3,2.07,1.3,5.82,2.44l-.68,1.13c1.42.31,1.94.1,3.32,1.79-1.79-1-.83,2.06-3,1,.12,5.21,5.86,4.38,3.79,8.05,3.92.08-.64-4.2.6-3.58.37-1.35,3,.2,3.52,1.55.73,1.24-2.17,4.19-.08,7.23-.19-.31-.41-.2-.6-.52.08,1.57,2.4,1.67,2.26,3.75,2.19-.28,1.18,1.84,3.43.71l-2.44-2.42c1.66,1.2,5.14,1.06,5.77,4.36a5.59,5.59,0,0,1-2.34-.63c-.08,1.15,1.43,1.17,1.36,2.35-2.23,1.15-2.83-3-5.62-3.65-.3,1.37,3.77,2.17.91,2.8,3.73-.67,1.76,3.19,5.39,3.76l-1.33.7c.42.19,1.48.46,1.87,1.07h-2.37c2.54.72,1.08,4,3,5-2.53-3.19.91-1.73.77-3.72,4.67,2.82-1.44,4.49,2.59,8.53-.64-.48-1-2.78.27-2.23a6.69,6.69,0,0,1,.58,3.44c2.53,2.76.89-1.35,2.6-.63-.69,2.06,1.71,1,3.17,1.94l-1.21.91c1.9,3.85,3.23-1,4.72,2.61l-2.7,0,1.7,1.2-1.63.72c2.4.89,2.57,1.61,3.55,3.53a2.18,2.18,0,0,1,3.57-.06c.11,1.53-1.59.34.28,2.24-1.12.13-2.48.35-2.13-1.39-.46.21-1.13.13-1.59.33.07,1.69,2,2.81,2.67,3.54a2,2,0,0,1-.39-1c1.36.57,2.79,1.07,4.18,1.59,0,.81-.71.73-1.38.66.65.48,1.55.45,2.41,1.22-1.15.55-2.08,1.4-3.62.55l3.52,1.89c-.25.52.13,2.34-.53,2.27.83,2,5.15,2.25,6.28,4.82a1.75,1.75,0,0,1,1.18.31c1.55,2,2,4.65,5.33,5.72l-.45,2.7c2,1.38.45-3.52,3.79-1.23,2.44,1.53-.66,2-.43,3.11,1.82.23,5.18.38,5.7,3.39C385.47,234.32,385.23,233.63,384.55,233.19Zm22.05,19.17c-.64-.14-2.17-.18-1.87-1.09C406.41,250.46,406.21,251.38,406.6,252.36Zm37,24.82c-.65.14-1-.43-1.26-1.3A2.36,2.36,0,0,1,443.56,277.18Zm111.12,52.67-.09,0C553.73,328.85,554,329.24,554.68,329.86Zm2,1.68a.44.44,0,0,0,.4-.5c-.33.26-.87,0-1.42-.34C555.7,331.12,555.88,331.5,556.73,331.53Zm-212.41-168-.07.62C343.27,163.48,343.78,163.53,344.32,163.55Z"/><path id="_Path_139" data-name="&lt;Path&gt;" class="cls-141" d="M438.22,275.84a1.89,1.89,0,0,1,.32-.78C438.21,275.12,438,275.35,438.22,275.84Z"/><path id="_Path_140" data-name="&lt;Path&gt;" class="cls-142" d="M371.3,220.72l0-.08a.89.89,0,0,0-.27.11Z"/><path id="_Path_141" data-name="&lt;Path&gt;" class="cls-143" d="M514.59,324.68a2.06,2.06,0,0,1-.54-1.15C513.84,323.84,513.9,324.22,514.59,324.68Z"/><path id="_Path_142" data-name="&lt;Path&gt;" class="cls-144" d="M570.32,334.91l-1.68-.33a2,2,0,0,1,1.15,1C569.9,335.3,569.83,334.72,570.32,334.91Z"/><path id="_Path_143" data-name="&lt;Path&gt;" class="cls-145" d="M579.67,348.93c.3-.07.48.19.78.11l.23-.65C579.7,348,578.8,348.24,579.67,348.93Z"/><path id="_Path_144" data-name="&lt;Path&gt;" class="cls-146" d="M569.59,340c-.42,1.18.72,1.23,1.89,1.47a.72.72,0,0,1-.19-.08C572.35,339.93,571,340,569.59,340Z"/><path id="_Path_145" data-name="&lt;Path&gt;" class="cls-147" d="M571.74,341.52a3.32,3.32,0,0,1,1,.4C573.17,341.34,572.41,341.61,571.74,341.52Z"/><path id="_Path_146" data-name="&lt;Path&gt;" class="cls-148" d="M560.08,332.17c.36.51,1-1.29,1.08-.7C562.43,330.29,557,331.68,560.08,332.17Z"/><polygon id="_Path_147" data-name="&lt;Path&gt;" class="cls-149" points="568.68 344.07 568.96 342.51 567.82 343.36 568.68 344.07"/><path id="_Path_148" data-name="&lt;Path&gt;" class="cls-150" d="M560.74,339.27l1.52,1.15c.09-.24.37-.28.69-.27C561.92,339.63,560.9,338.84,560.74,339.27Z"/><path id="_Path_149" data-name="&lt;Path&gt;" class="cls-151" d="M562.94,340.15a2.48,2.48,0,0,0,1.48.39A5.5,5.5,0,0,0,562.94,340.15Z"/><polygon id="_Path_150" data-name="&lt;Path&gt;" class="cls-152" points="566.14 343.44 565.78 342.92 564.62 342.28 566.14 343.44"/><path id="_Path_151" data-name="&lt;Path&gt;" class="cls-153" d="M542.68,330.53l-2-.51c-.43.37-.09.91.69,1.06C541.95,331,542.72,331.12,542.68,330.53Z"/><path id="_Path_152" data-name="&lt;Path&gt;" class="cls-154" d="M546.32,336.91c-.35-.52-.23-.84-.28-1.43l-.93,1.67Z"/><path id="_Path_153" data-name="&lt;Path&gt;" class="cls-155" d="M540.71,334.76c-.43.38-3.38,0-1,1.07C540.14,335.46,542.21,335.94,540.71,334.76Z"/><polygon id="_Path_154" data-name="&lt;Path&gt;" class="cls-156" points="514.42 318.66 514.89 318.89 516.4 316.15 514.42 318.66"/><path id="_Path_155" data-name="&lt;Path&gt;" class="cls-157" d="M486.77,311.71c1.71,1.86,1.55-1.34,3,.55.89-.34-1.15-1.55-.29-1.79C487.73,310.39,487.3,309.63,486.77,311.71Z"/><path id="_Path_156" data-name="&lt;Path&gt;" class="cls-158" d="M489.42,310.47a5.42,5.42,0,0,0,.91,0A2.48,2.48,0,0,0,489.42,310.47Z"/><polygon id="_Path_157" data-name="&lt;Path&gt;" class="cls-159" points="305.43 81.99 305.59 80.4 304.86 81.61 305.43 81.99"/><path id="_Path_158" data-name="&lt;Path&gt;" class="cls-160" d="M302.22,80l1.86-.91L302,78.76C302.2,79.05,302.58,79.62,302.22,80Z"/><path id="_Path_159" data-name="&lt;Path&gt;" class="cls-161" d="M407.12,258.17l.42-.28c.17-.54-.08-.81-.58-1.35Z"/><polygon id="_Path_160" data-name="&lt;Path&gt;" class="cls-162" points="392.29 242.88 392.53 243.16 393.33 241.42 392.29 242.88"/><path id="_Path_161" data-name="&lt;Path&gt;" class="cls-163" d="M377.77,232c.44.59,1.37.91,1.83,1.47C378.21,232.6,379.33,230.33,377.77,232Z"/></g></g></g><g id="_Group_6" data-name="&lt;Group&gt;"><path id="_Compound_Path_3" data-name="&lt;Compound Path&gt;" d="M968.87,184.24c7.51,3.14,9.1,8.46,9.21,14.05a48.66,48.66,0,0,1-1.84,13.25c-3.13,11.79-9.18,21.41-21.79,24.78-12.86,3.44-23.87-1-32.39-10.36a68.35,68.35,0,0,1-12.6-19.63c-13.36-32.54-12-65,3.43-96.48a61.82,61.82,0,0,1,13.3-17.77c14.11-13,33.61-11.16,45.26,4,10.34,13.46,13.55,29,10.66,45.55-2,11.5-6.91,16.21-18.68,17.48-9.25,1-18.65.64-28,1-4.38.15-8.76.46-14.18.76-.52,20.31,2.1,38.72,14.35,54.6,5.23,6.78,10.33,7.3,17.53,2.38s10.94-12,12.63-20.41C966.63,193.19,967.73,189,968.87,184.24Zm-45.21-34.53c9-.53,16.36-1,23.69-1.39,19.74-1,22.94-4.63,21.61-24.5a54.33,54.33,0,0,0-.7-5.52c-1-5.58-2-11.25-8.26-13.46-6.44-2.28-11.81.62-16.18,4.83C932.77,120.33,928.34,134.29,923.66,149.71Z"/><path id="_Compound_Path_4" data-name="&lt;Compound Path&gt;" d="M539.16,160.78c-.95,19.49,1.87,36.52,12,51.72,7.08,10.65,15.43,11.56,23.6,1.7,4.31-5.2,6.4-12.33,9.08-18.77,1.36-3.27,1.78-6.94,3.19-12.74,3.32,3.72,5.69,5.48,6.8,7.84a21.73,21.73,0,0,1,1.75,8.63c.34,18-9.15,33.06-23.14,37.14s-29.26-2.63-38.87-17.86c-14.65-23.22-18-48.94-13.43-75.42,2.06-12,6.44-23.76,11.52-34.84,3.13-6.84,8.75-13.15,14.66-18,13-10.58,30.25-8.77,41.16,3.92,12.88,15,15.73,32.65,11.4,51.52-2,8.84-9,12.72-17.35,13.44-9.28.8-18.64.65-28,1C549.14,160.21,544.74,160.49,539.16,160.78Zm2.6-11.08c9.75-.57,18.61-1.07,27.47-1.61,2.23-.14,4.45-.42,6.68-.61,6.23-.51,9.53-4.21,9.84-10.12.36-7,.91-14.25-.16-21.15-1.89-12.16-11.07-15.6-21.41-8.64a26,26,0,0,0-5.75,5.24C549.94,123.44,545.17,135.74,541.75,149.7Z"/><path id="_Path_162" data-name="&lt;Path&gt;" d="M765.54,95.92c.72,25.94,1.42,50.81,2.12,75.69,18.08,9.12,24.65,11,38.3-.23,5.27,6,5.53,9.19.36,13.49-6.78,5.64-14.71,6.88-23.18,4.84-5-1.2-9.89-2.57-16.4-4.27l-2.28,44.16c5.92-.56,11-.91,16-1.54,5.55-.69,11-1.82,16.6-2.41,2.9-.31,6.25-.65,8.73.47,2.73,1.24,6,3.8,6.71,6.41,1.14,4.25-3.13,5.3-6.43,5.94-5.11,1-10.27,1.85-15.44,2.45-10.37,1.21-20.75,2.4-31.15,3.23-8.91.71-11.26-.74-13.56-9.6a86,86,0,0,1-2.71-19.74c-.17-8.88.74-17.78,1.21-27.07-7.43-.77-8.66,6.53-13,9.09-7-5.68-8.08-8.59-3-14.31,4.33-4.84,10.16-8.35,16.69-13.52V98c-3.92-2.66-11.19-1-11.37-9.57,5.67-1.54,11.48-3.89,17.48-4.58,13.27-1.53,26.64-2.23,40-3.23,1.86-.14,3.73-.08,5.59,0,6.53.16,10.2,3.49,11.61,11.32Z"/><path id="_Path_163" data-name="&lt;Path&gt;" d="M846.27,133.5c1.48-3.63,2.68-7.41,4.5-10.86,4.49-8.53,8.81-17.22,14.1-25.25,3.36-5.1,8.84-8.31,15.48-6.62,6.84,1.74,8.8,7.61,9.93,13.61a50.14,50.14,0,0,1,.73,11.13c-.62,16-1.45,31.92-2.2,47.73-6.48,1.85-9.25-2.06-10.7-6.26a48.07,48.07,0,0,1-2.42-14.19c-.33-11.83-.11-23.67-.11-36.21-5,1.59-6.65,6.34-8.83,10.27a155.36,155.36,0,0,0-18,52.65c-2,13.56-1.9,27.44-2.81,41.17-.32,4.8-.22,9.76-1.48,14.32-1.53,5.55-5.19,6.82-10.39,4.47-5.76-2.61-9.8-6.79-10.52-13.39-.68-6.3-1.79-12.62-1.69-18.91.45-30.56,1.24-61.12,1.91-91.68,0-1.12-.2-2.42.28-3.32,1.65-3.1,2.9-7.65,5.51-8.74,4.71-2,7.55,2.68,8.9,6.4a145.8,145.8,0,0,1,5.56,20.36c.86,4.18.58,8.6.81,12.91Z"/><path id="_Compound_Path_5" data-name="&lt;Compound Path&gt;" d="M1050.58,126.12c-6.38-1.32-6-6-6.24-9.82-.56-8.23-5.52-12.66-12.41-15.69-5.93-2.61-11.66-2.55-16.73,1.88-5.24,4.58-7.1,10.43-5.28,17.16a32.65,32.65,0,0,0,3.49,8.19c5.75,9.58,11.85,19,17.54,28.56,3,5.14,6.85,7.16,12.92,6a40.45,40.45,0,0,1,12.24,0c3.6.44,7.32,1.56,8,7.83l-21.36,1.28c1.76,4,3,7.27,4.6,10.35,4.63,8.87,6.74,18.31,5.16,28.12-.86,5.38-2.53,11.07-5.43,15.6-10.47,16.34-31.28,15.66-41.34-.93-9.24-15.22-6.4-34.6,7.14-48.12,2.85-2.85,6-5.43,9.76-8.84-3.85-5.38-7.48-10.44-11.08-15.51-4.74-6.68-9.81-13.16-14.09-20.13a42,42,0,0,1-5.9-24.65c.68-13,9.42-23,22.28-23.64,15.59-.74,28.45,5.34,36.94,18.85C1055.94,110.77,1055.67,116.4,1050.58,126.12Zm-21.36,52.21c-6.9,4.62-11.68,9.64-14.9,16-3.6,7.13-5.51,14.53-2.53,22.49,1.8,4.82,4.65,9.57,9.91,9,4.29-.46,8.82-3.34,12.15-6.36,2.12-1.92,2.83-6,3.14-9.2C1038.07,199.34,1035.84,189,1029.22,178.33Z"/><path id="_Compound_Path_6" data-name="&lt;Compound Path&gt;" d="M682.51,170.36l-22.38,1.22c2.45,5.12,4.37,9,6.18,12.95,5,10.93,6.37,22.16,2.41,33.71s-13.88,19.25-24.88,19.21c-9.81,0-18.74-7-23-18.34-5.94-15.59-2.27-29.3,8.7-41.31,3-3.27,6.55-6,10.8-9.87-3.23-4.69-6.47-9.51-9.82-14.24-4.95-7-11.05-13.42-14.66-21a65.13,65.13,0,0,1-6.5-24.44c-.6-14.28,10.59-24.76,24.81-24.55,13.39.2,24.69,5.53,32.78,16.42,6,8.07,7.08,16.74,2.17,25.74-6.9-.23-6.63-4.78-6.81-8.81-.4-9.23-6.22-13.93-14-16.93-6.13-2.36-11.85-1.42-16.43,3.44-4.34,4.6-7.3,10.45-4.12,16.3,7.45,13.71,15.62,27.05,24,40.23,1.12,1.76,5.11,2.15,7.83,2.33,4.44.3,9-.45,13.39-.1C677,162.58,680.93,163.83,682.51,170.36Zm-35.07,9c-14.09,7.73-21.35,21.66-18.64,35,1.32,6.47,5.39,11.19,10.23,11.86,5,.69,11.68-3.42,14.07-9a22.9,22.9,0,0,0,2-7.47A50.11,50.11,0,0,0,647.44,179.34Z"/><path id="_Path_164" data-name="&lt;Path&gt;" d="M470.21,223.69c12.28,7,23.82,6.79,34.7-3.28,3.35-3.1,7.38-5.47,11.31-8.33,5,10.73,4.56,14-1.25,20.27-9,9.76-20,13.16-32.47,8.51-11.73-4.37-23-6.13-34.32.77a13,13,0,0,1-4.29,1.22c-3.54.68-7.51.54-8.23-3.46-.49-2.7.67-6.91,2.66-8.59,3.58-3,8.34-4.65,13.58-7.36,1.42-44,2.85-88.36,4.28-132.71.15-4.75-1.07-10.9,5.31-11.93S469.11,84,470,88.55c1.64,8.76,3.67,17.69,3.49,26.51-.59,29.47-2.14,58.92-3.21,88.38C470,210.11,470.21,216.79,470.21,223.69Z"/></g><text class="cls-164" transform="translate(439.74 393.74)">ALBERGUE RURAL</text></g></g></g></svg>